<?xml version="1.0" encoding="UTF-8"?>
<svg xmlns="http://www.w3.org/2000/svg" width="960" height="360" viewBox="0 0 960 360" role="img" aria-labelledby="title desc">
<title id="title">Voxel downsample: CPU vs GPU</title>
<desc id="desc">End-to-end centroid voxel filter latency versus point count on CPU and GPU.</desc>
<rect width="960" height="360" fill="#0f172a"/>
<text x="24" y="34" fill="#e2e8f0" font-family="ui-sans-serif, system-ui, sans-serif" font-size="20" font-weight="700">Voxel downsample: CPU vs GPU</text>
<text x="24" y="58" fill="#94a3b8" font-family="ui-sans-serif, system-ui, sans-serif" font-size="13">End-to-end filter latency vs point count (centroid, leaf=4.0)</text>
<line x1="70.0" y1="310.00" x2="810.0" y2="310.00" stroke="#1e293b" stroke-width="1"/><line x1="70.0" y1="250.00" x2="810.0" y2="250.00" stroke="#1e293b" stroke-width="1"/><line x1="70.0" y1="190.00" x2="810.0" y2="190.00" stroke="#1e293b" stroke-width="1"/><line x1="70.0" y1="130.00" x2="810.0" y2="130.00" stroke="#1e293b" stroke-width="1"/><line x1="70.0" y1="70.00" x2="810.0" y2="70.00" stroke="#1e293b" stroke-width="1"/><line x1="70.00" y1="70.0" x2="70.00" y2="310.0" stroke="#1e293b" stroke-width="1"/><text x="70.00" y="310.0" dy="18" text-anchor="middle" fill="#64748b" font-family="ui-sans-serif, system-ui, sans-serif" font-size="11">10k</text><line x1="391.60" y1="70.0" x2="391.60" y2="310.0" stroke="#1e293b" stroke-width="1"/><text x="391.60" y="310.0" dy="18" text-anchor="middle" fill="#64748b" font-family="ui-sans-serif, system-ui, sans-serif" font-size="11">100k</text><line x1="713.19" y1="70.0" x2="713.19" y2="310.0" stroke="#1e293b" stroke-width="1"/><text x="713.19" y="310.0" dy="18" text-anchor="middle" fill="#64748b" font-family="ui-sans-serif, system-ui, sans-serif" font-size="11">1M</text><text x="70.0" y="310.00" dx="-8" text-anchor="end" dominant-baseline="middle" fill="#64748b" font-family="ui-sans-serif, system-ui, sans-serif" font-size="11">0</text><text x="70.0" y="250.00" dx="-8" text-anchor="end" dominant-baseline="middle" fill="#64748b" font-family="ui-sans-serif, system-ui, sans-serif" font-size="11">100</text><text x="70.0" y="190.00" dx="-8" text-anchor="end" dominant-baseline="middle" fill="#64748b" font-family="ui-sans-serif, system-ui, sans-serif" font-size="11">200</text><text x="70.0" y="130.00" dx="-8" text-anchor="end" dominant-baseline="middle" fill="#64748b" font-family="ui-sans-serif, system-ui, sans-serif" font-size="11">300</text><text x="70.0" y="70.00" dx="-8" text-anchor="end" dominant-baseline="middle" fill="#64748b" font-family="ui-sans-serif, system-ui, sans-serif" font-size="11">400 ms</text><polyline points="70.00,309.52 331.43,307.18 391.60,305.80 488.40,295.72 616.38,253.60 673.01,221.20 713.19,217.00 810.00,76.60" fill="none" stroke="#f97316" stroke-width="3" stroke-linejoin="round"/><polyline points="70.00,299.80 331.43,301.18 391.60,299.68 488.40,294.22 616.38,279.40 673.01,281.20 713.19,276.40 810.00,249.40" fill="none" stroke="#38bdf8" stroke-width="3" stroke-linejoin="round"/><circle cx="70.00" cy="309.52" r="4" fill="#f97316"/><circle cx="70.00" cy="299.80" r="4" fill="#38bdf8"/><circle cx="331.43" cy="307.18" r="4" fill="#f97316"/><circle cx="331.43" cy="301.18" r="4" fill="#38bdf8"/><circle cx="391.60" cy="305.80" r="4" fill="#f97316"/><circle cx="391.60" cy="299.68" r="4" fill="#38bdf8"/><circle cx="488.40" cy="295.72" r="4" fill="#f97316"/><circle cx="488.40" cy="294.22" r="4" fill="#38bdf8"/><circle cx="616.38" cy="253.60" r="4" fill="#f97316"/><circle cx="616.38" cy="279.40" r="4" fill="#38bdf8"/><circle cx="673.01" cy="221.20" r="4" fill="#f97316"/><circle cx="673.01" cy="281.20" r="4" fill="#38bdf8"/><circle cx="713.19" cy="217.00" r="4" fill="#f97316"/><circle cx="713.19" cy="276.40" r="4" fill="#38bdf8"/><circle cx="810.00" cy="76.60" r="4" fill="#f97316"/><circle cx="810.00" cy="249.40" r="4" fill="#38bdf8"/><line x1="802.0" y1="82.0" x2="774.0" y2="82.0" stroke="#f97316" stroke-width="3" stroke-linecap="round"/><text x="802.0" y="82.0" dx="8" dominant-baseline="middle" fill="#cbd5e1" font-family="ui-sans-serif, system-ui, sans-serif" font-size="13">CPU (centroid)</text><line x1="802.0" y1="104.0" x2="774.0" y2="104.0" stroke="#38bdf8" stroke-width="3" stroke-linecap="round"/><text x="802.0" y="104.0" dx="8" dominant-baseline="middle" fill="#cbd5e1" font-family="ui-sans-serif, system-ui, sans-serif" font-size="13">GPU (centroid)</text><text x="320.2" y="112.0" fill="#38bdf8" font-family="ui-sans-serif, system-ui, sans-serif" font-size="16" font-weight="700">GPU is ~3.9x faster at 2M points</text><text x="320.2" y="132.0" fill="#94a3b8" font-family="ui-sans-serif, system-ui, sans-serif" font-size="12">CPU stays ahead below ~200k; wgpu wins as clouds grow</text></svg>
