<?xml version="1.0" encoding="UTF-8"?>
<svg xmlns="http://www.w3.org/2000/svg" width="960" height="360" viewBox="0 0 960 360" role="img" aria-labelledby="title desc">
<title id="title">Voxel downsample: CPU vs GPU</title>
<desc id="desc">End-to-end centroid voxel filter latency versus point count on CPU and GPU.</desc>
<rect width="960" height="360" fill="#0f172a"/>
<text x="24" y="34" fill="#e2e8f0" font-family="ui-sans-serif, system-ui, sans-serif" font-size="20" font-weight="700">Voxel downsample: CPU vs GPU</text>
<text x="24" y="58" fill="#94a3b8" font-family="ui-sans-serif, system-ui, sans-serif" font-size="13">End-to-end filter latency vs point count (centroid, leaf=4.0)</text>
<line x1="70.0" y1="310.00" x2="810.0" y2="310.00" stroke="#1e293b" stroke-width="1"/><line x1="70.0" y1="250.00" x2="810.0" y2="250.00" stroke="#1e293b" stroke-width="1"/><line x1="70.0" y1="190.00" x2="810.0" y2="190.00" stroke="#1e293b" stroke-width="1"/><line x1="70.0" y1="130.00" x2="810.0" y2="130.00" stroke="#1e293b" stroke-width="1"/><line x1="70.0" y1="70.00" x2="810.0" y2="70.00" stroke="#1e293b" stroke-width="1"/><line x1="70.00" y1="70.0" x2="70.00" y2="310.0" stroke="#1e293b" stroke-width="1"/><text x="70.00" y="310.0" dy="18" text-anchor="middle" fill="#64748b" font-family="ui-sans-serif, system-ui, sans-serif" font-size="11">10k</text><line x1="391.60" y1="70.0" x2="391.60" y2="310.0" stroke="#1e293b" stroke-width="1"/><text x="391.60" y="310.0" dy="18" text-anchor="middle" fill="#64748b" font-family="ui-sans-serif, system-ui, sans-serif" font-size="11">100k</text><line x1="713.19" y1="70.0" x2="713.19" y2="310.0" stroke="#1e293b" stroke-width="1"/><text x="713.19" y="310.0" dy="18" text-anchor="middle" fill="#64748b" font-family="ui-sans-serif, system-ui, sans-serif" font-size="11">1M</text><text x="70.0" y="310.00" dx="-8" text-anchor="end" dominant-baseline="middle" fill="#64748b" font-family="ui-sans-serif, system-ui, sans-serif" font-size="11">0</text><text x="70.0" y="250.00" dx="-8" text-anchor="end" dominant-baseline="middle" fill="#64748b" font-family="ui-sans-serif, system-ui, sans-serif" font-size="11">30</text><text x="70.0" y="190.00" dx="-8" text-anchor="end" dominant-baseline="middle" fill="#64748b" font-family="ui-sans-serif, system-ui, sans-serif" font-size="11">60</text><text x="70.0" y="130.00" dx="-8" text-anchor="end" dominant-baseline="middle" fill="#64748b" font-family="ui-sans-serif, system-ui, sans-serif" font-size="11">90</text><text x="70.0" y="70.00" dx="-8" text-anchor="end" dominant-baseline="middle" fill="#64748b" font-family="ui-sans-serif, system-ui, sans-serif" font-size="11">120 ms</text><polyline points="70.00,309.50 332.58,306.56 391.60,304.71 488.40,299.82 616.38,286.89 673.01,273.44 713.19,262.23 810.00,215.42" fill="none" stroke="#f97316" stroke-width="3" stroke-linejoin="round"/><polyline points="70.00,293.64 332.58,278.08 391.60,267.91 488.40,260.90 616.38,238.34 673.01,200.08 713.19,178.22 810.00,100.36" fill="none" stroke="#38bdf8" stroke-width="3" stroke-linejoin="round"/><circle cx="70.00" cy="309.50" r="4" fill="#f97316"/><circle cx="70.00" cy="293.64" r="4" fill="#38bdf8"/><circle cx="332.58" cy="306.56" r="4" fill="#f97316"/><circle cx="332.58" cy="278.08" r="4" fill="#38bdf8"/><circle cx="391.60" cy="304.71" r="4" fill="#f97316"/><circle cx="391.60" cy="267.91" r="4" fill="#38bdf8"/><circle cx="488.40" cy="299.82" r="4" fill="#f97316"/><circle cx="488.40" cy="260.90" r="4" fill="#38bdf8"/><circle cx="616.38" cy="286.89" r="4" fill="#f97316"/><circle cx="616.38" cy="238.34" r="4" fill="#38bdf8"/><circle cx="673.01" cy="273.44" r="4" fill="#f97316"/><circle cx="673.01" cy="200.08" r="4" fill="#38bdf8"/><circle cx="713.19" cy="262.23" r="4" fill="#f97316"/><circle cx="713.19" cy="178.22" r="4" fill="#38bdf8"/><circle cx="810.00" cy="215.42" r="4" fill="#f97316"/><circle cx="810.00" cy="100.36" r="4" fill="#38bdf8"/><line x1="802.0" y1="82.0" x2="774.0" y2="82.0" stroke="#f97316" stroke-width="3" stroke-linecap="round"/><text x="802.0" y="82.0" dx="8" dominant-baseline="middle" fill="#cbd5e1" font-family="ui-sans-serif, system-ui, sans-serif" font-size="13">CPU (centroid)</text><line x1="802.0" y1="104.0" x2="774.0" y2="104.0" stroke="#38bdf8" stroke-width="3" stroke-linecap="round"/><text x="802.0" y="104.0" dx="8" dominant-baseline="middle" fill="#cbd5e1" font-family="ui-sans-serif, system-ui, sans-serif" font-size="13">GPU (centroid)</text><text x="320.2" y="112.0" fill="#f97316" font-family="ui-sans-serif, system-ui, sans-serif" font-size="16" font-weight="700">CPU leads end-to-end through 2M points</text><text x="320.2" y="132.0" fill="#94a3b8" font-family="ui-sans-serif, system-ui, sans-serif" font-size="12">GPU submit batching cuts latency; radix sort is the next target</text></svg>
