<?xml version="1.0" encoding="UTF-8"?>
<svg xmlns="http://www.w3.org/2000/svg" width="960" height="320" viewBox="0 0 960 320" role="img" aria-labelledby="title desc">
<title id="title">SpatialRust MVP pipeline preview</title>
<desc id="desc">Top-down XY view of plane inliers and Euclidean cluster labels produced by the MVP pipeline.</desc>
<rect width="960" height="320" fill="#0f172a"/>
<text x="24" y="34" fill="#e2e8f0" font-family="ui-sans-serif, system-ui, sans-serif" font-size="20" font-weight="700">SpatialRust MVP pipeline</text>
<text x="24" y="58" fill="#94a3b8" font-family="ui-sans-serif, system-ui, sans-serif" font-size="13">Real output from cargo run --example readme_mvp_preview</text>
<g transform="translate(24 72)">
<rect x="0" y="0" width="320" height="240" rx="12" fill="#111827" stroke="#334155"/>
<text x="16" y="24" fill="#cbd5e1" font-family="ui-sans-serif, system-ui, sans-serif" font-size="14" font-weight="600">Plane inliers (RANSAC)</text>
<circle cx="27.92" cy="212.08" r="3.2" fill="#cbd5e1" fill-opacity="0.85"/><circle cx="27.92" cy="165.06" r="3.2" fill="#cbd5e1" fill-opacity="0.85"/><circle cx="27.92" cy="118.04" r="3.2" fill="#cbd5e1" fill-opacity="0.85"/><circle cx="27.92" cy="71.02" r="3.2" fill="#cbd5e1" fill-opacity="0.85"/><circle cx="27.92" cy="24.00" r="3.2" fill="#cbd5e1" fill-opacity="0.85"/><circle cx="74.94" cy="212.08" r="3.2" fill="#cbd5e1" fill-opacity="0.85"/><circle cx="74.94" cy="165.06" r="3.2" fill="#cbd5e1" fill-opacity="0.85"/><circle cx="74.94" cy="118.04" r="3.2" fill="#cbd5e1" fill-opacity="0.85"/><circle cx="74.94" cy="71.02" r="3.2" fill="#cbd5e1" fill-opacity="0.85"/><circle cx="74.94" cy="24.00" r="3.2" fill="#cbd5e1" fill-opacity="0.85"/><circle cx="121.96" cy="212.08" r="3.2" fill="#cbd5e1" fill-opacity="0.85"/><circle cx="121.96" cy="165.06" r="3.2" fill="#cbd5e1" fill-opacity="0.85"/><circle cx="121.96" cy="118.04" r="3.2" fill="#cbd5e1" fill-opacity="0.85"/><circle cx="121.96" cy="71.02" r="3.2" fill="#cbd5e1" fill-opacity="0.85"/><circle cx="121.96" cy="24.00" r="3.2" fill="#cbd5e1" fill-opacity="0.85"/><circle cx="168.98" cy="212.08" r="3.2" fill="#cbd5e1" fill-opacity="0.85"/><circle cx="168.98" cy="165.06" r="3.2" fill="#cbd5e1" fill-opacity="0.85"/><circle cx="168.98" cy="118.04" r="3.2" fill="#cbd5e1" fill-opacity="0.85"/><circle cx="168.98" cy="71.02" r="3.2" fill="#cbd5e1" fill-opacity="0.85"/><circle cx="168.98" cy="24.00" r="3.2" fill="#cbd5e1" fill-opacity="0.85"/><circle cx="216.00" cy="212.08" r="3.2" fill="#cbd5e1" fill-opacity="0.85"/><circle cx="216.00" cy="165.06" r="3.2" fill="#cbd5e1" fill-opacity="0.85"/><circle cx="216.00" cy="118.04" r="3.2" fill="#cbd5e1" fill-opacity="0.85"/><circle cx="216.00" cy="71.02" r="3.2" fill="#cbd5e1" fill-opacity="0.85"/><circle cx="216.00" cy="24.00" r="3.2" fill="#cbd5e1" fill-opacity="0.85"/>
</g>
<g transform="translate(360 72)">
<rect x="0" y="0" width="320" height="240" rx="12" fill="#111827" stroke="#334155"/>
<text x="16" y="24" fill="#cbd5e1" font-family="ui-sans-serif, system-ui, sans-serif" font-size="14" font-weight="600">Cluster labels (Euclidean)</text>
<circle cx="24.00" cy="216.00" r="4.6" fill="#f97316"/>
</g>
<g transform="translate(696 72)">
<rect x="0" y="0" width="240" height="240" rx="12" fill="#111827" stroke="#334155"/>
<text x="16" y="24" fill="#cbd5e1" font-family="ui-sans-serif, system-ui, sans-serif" font-size="14" font-weight="600">Pipeline</text>
<text x="16" y="52.0" fill="#94a3b8" font-family="ui-monospace, monospace" font-size="12">0. PCD / LAS / COPC</text><text x="16" y="80.0" fill="#94a3b8" font-family="ui-monospace, monospace" font-size="12">1. Voxel downsample</text><text x="16" y="108.0" fill="#94a3b8" font-family="ui-monospace, monospace" font-size="12">2. Normal estimation</text><text x="16" y="136.0" fill="#94a3b8" font-family="ui-monospace, monospace" font-size="12">3. Plane RANSAC</text><text x="16" y="164.0" fill="#94a3b8" font-family="ui-monospace, monospace" font-size="12">4. Euclidean cluster</text><text x="16" y="192.0" fill="#94a3b8" font-family="ui-monospace, monospace" font-size="12">5. Optional ICP</text><text x="16" y="228" fill="#64748b" font-family="ui-sans-serif, system-ui, sans-serif" font-size="11">1 cluster(s) in preview scene</text>
</g>
</svg>
