<?xml version="1.0" encoding="UTF-8"?>
<svg xmlns="http://www.w3.org/2000/svg" width="960" height="320" viewBox="0 0 960 320" role="img" aria-labelledby="title desc">
<title id="title">SpatialRust MVP pipeline preview</title>
<desc id="desc">Top-down XY view of plane inliers and Euclidean cluster labels produced by the MVP pipeline.</desc>
<rect width="960" height="320" fill="#0f172a"/>
<text x="24" y="34" fill="#e2e8f0" font-family="ui-sans-serif, system-ui, sans-serif" font-size="20" font-weight="700">SpatialRust MVP pipeline</text>
<text x="24" y="58" fill="#94a3b8" font-family="ui-sans-serif, system-ui, sans-serif" font-size="13">Real output from cargo run --example readme_mvp_preview</text>
<g transform="translate(24 72)">
<rect x="0" y="0" width="320" height="240" rx="12" fill="#111827" stroke="#334155"/>
<text x="16" y="24" fill="#cbd5e1" font-family="ui-sans-serif, system-ui, sans-serif" font-size="14" font-weight="600">Plane inliers (RANSAC)</text>
<circle cx="24.00" cy="216.00" r="3.2" fill="#cbd5e1" fill-opacity="0.85"/><circle cx="24.00" cy="203.09" r="3.2" fill="#cbd5e1" fill-opacity="0.85"/><circle cx="24.00" cy="190.18" r="3.2" fill="#cbd5e1" fill-opacity="0.85"/><circle cx="24.00" cy="177.27" r="3.2" fill="#cbd5e1" fill-opacity="0.85"/><circle cx="24.00" cy="164.36" r="3.2" fill="#cbd5e1" fill-opacity="0.85"/><circle cx="24.00" cy="151.45" r="3.2" fill="#cbd5e1" fill-opacity="0.85"/><circle cx="24.00" cy="138.54" r="3.2" fill="#cbd5e1" fill-opacity="0.85"/><circle cx="24.00" cy="125.63" r="3.2" fill="#cbd5e1" fill-opacity="0.85"/><circle cx="24.00" cy="112.72" r="3.2" fill="#cbd5e1" fill-opacity="0.85"/><circle cx="24.00" cy="99.81" r="3.2" fill="#cbd5e1" fill-opacity="0.85"/><circle cx="24.00" cy="86.89" r="3.2" fill="#cbd5e1" fill-opacity="0.85"/><circle cx="24.00" cy="73.98" r="3.2" fill="#cbd5e1" fill-opacity="0.85"/><circle cx="24.00" cy="61.07" r="3.2" fill="#cbd5e1" fill-opacity="0.85"/><circle cx="24.00" cy="48.16" r="3.2" fill="#cbd5e1" fill-opacity="0.85"/><circle cx="24.00" cy="37.83" r="3.2" fill="#cbd5e1" fill-opacity="0.85"/><circle cx="24.00" cy="24.92" r="3.2" fill="#cbd5e1" fill-opacity="0.85"/><circle cx="36.76" cy="216.00" r="3.2" fill="#cbd5e1" fill-opacity="0.85"/><circle cx="36.76" cy="203.09" r="3.2" fill="#cbd5e1" fill-opacity="0.85"/><circle cx="36.76" cy="190.18" r="3.2" fill="#cbd5e1" fill-opacity="0.85"/><circle cx="36.76" cy="177.27" r="3.2" fill="#cbd5e1" fill-opacity="0.85"/><circle cx="36.76" cy="164.36" r="3.2" fill="#cbd5e1" fill-opacity="0.85"/><circle cx="36.76" cy="151.45" r="3.2" fill="#cbd5e1" fill-opacity="0.85"/><circle cx="36.76" cy="138.54" r="3.2" fill="#cbd5e1" fill-opacity="0.85"/><circle cx="36.76" cy="125.63" r="3.2" fill="#cbd5e1" fill-opacity="0.85"/><circle cx="36.76" cy="112.72" r="3.2" fill="#cbd5e1" fill-opacity="0.85"/><circle cx="36.76" cy="99.81" r="3.2" fill="#cbd5e1" fill-opacity="0.85"/><circle cx="36.76" cy="86.89" r="3.2" fill="#cbd5e1" fill-opacity="0.85"/><circle cx="36.76" cy="73.98" r="3.2" fill="#cbd5e1" fill-opacity="0.85"/><circle cx="36.76" cy="61.07" r="3.2" fill="#cbd5e1" fill-opacity="0.85"/><circle cx="36.76" cy="48.16" r="3.2" fill="#cbd5e1" fill-opacity="0.85"/><circle cx="36.76" cy="37.83" r="3.2" fill="#cbd5e1" fill-opacity="0.85"/><circle cx="36.76" cy="24.92" r="3.2" fill="#cbd5e1" fill-opacity="0.85"/><circle cx="49.52" cy="216.00" r="3.2" fill="#cbd5e1" fill-opacity="0.85"/><circle cx="49.52" cy="203.09" r="3.2" fill="#cbd5e1" fill-opacity="0.85"/><circle cx="49.52" cy="190.18" r="3.2" fill="#cbd5e1" fill-opacity="0.85"/><circle cx="49.52" cy="177.27" r="3.2" fill="#cbd5e1" fill-opacity="0.85"/><circle cx="49.52" cy="164.36" r="3.2" fill="#cbd5e1" fill-opacity="0.85"/><circle cx="49.52" cy="151.45" r="3.2" fill="#cbd5e1" fill-opacity="0.85"/><circle cx="49.52" cy="138.54" r="3.2" fill="#cbd5e1" fill-opacity="0.85"/><circle cx="49.52" cy="125.63" r="3.2" fill="#cbd5e1" fill-opacity="0.85"/><circle cx="49.52" cy="112.72" r="3.2" fill="#cbd5e1" fill-opacity="0.85"/><circle cx="49.52" cy="99.81" r="3.2" fill="#cbd5e1" fill-opacity="0.85"/><circle cx="49.52" cy="86.89" r="3.2" fill="#cbd5e1" fill-opacity="0.85"/><circle cx="49.52" cy="73.98" r="3.2" fill="#cbd5e1" fill-opacity="0.85"/><circle cx="49.52" cy="61.07" r="3.2" fill="#cbd5e1" fill-opacity="0.85"/><circle cx="49.52" cy="48.16" r="3.2" fill="#cbd5e1" fill-opacity="0.85"/><circle cx="49.52" cy="37.83" r="3.2" fill="#cbd5e1" fill-opacity="0.85"/><circle cx="50.11" cy="24.46" r="3.2" fill="#cbd5e1" fill-opacity="0.85"/><circle cx="62.28" cy="216.00" r="3.2" fill="#cbd5e1" fill-opacity="0.85"/><circle cx="62.28" cy="203.09" r="3.2" fill="#cbd5e1" fill-opacity="0.85"/><circle cx="62.28" cy="190.18" r="3.2" fill="#cbd5e1" fill-opacity="0.85"/><circle cx="62.28" cy="177.27" r="3.2" fill="#cbd5e1" fill-opacity="0.85"/><circle cx="62.28" cy="164.36" r="3.2" fill="#cbd5e1" fill-opacity="0.85"/><circle cx="62.28" cy="151.45" r="3.2" fill="#cbd5e1" fill-opacity="0.85"/><circle cx="62.28" cy="138.54" r="3.2" fill="#cbd5e1" fill-opacity="0.85"/><circle cx="62.28" cy="125.63" r="3.2" fill="#cbd5e1" fill-opacity="0.85"/><circle cx="62.28" cy="112.72" r="3.2" fill="#cbd5e1" fill-opacity="0.85"/><circle cx="62.28" cy="99.81" r="3.2" fill="#cbd5e1" fill-opacity="0.85"/><circle cx="62.28" cy="86.89" r="3.2" fill="#cbd5e1" fill-opacity="0.85"/><circle cx="62.28" cy="73.98" r="3.2" fill="#cbd5e1" fill-opacity="0.85"/><circle cx="62.28" cy="61.07" r="3.2" fill="#cbd5e1" fill-opacity="0.85"/><circle cx="62.28" cy="48.16" r="3.2" fill="#cbd5e1" fill-opacity="0.85"/><circle cx="62.28" cy="37.83" r="3.2" fill="#cbd5e1" fill-opacity="0.85"/><circle cx="62.28" cy="24.92" r="3.2" fill="#cbd5e1" fill-opacity="0.85"/><circle cx="75.04" cy="216.00" r="3.2" fill="#cbd5e1" fill-opacity="0.85"/><circle cx="75.04" cy="203.09" r="3.2" fill="#cbd5e1" fill-opacity="0.85"/><circle cx="75.04" cy="190.18" r="3.2" fill="#cbd5e1" fill-opacity="0.85"/><circle cx="75.04" cy="177.27" r="3.2" fill="#cbd5e1" fill-opacity="0.85"/><circle cx="75.04" cy="164.36" r="3.2" fill="#cbd5e1" fill-opacity="0.85"/><circle cx="75.04" cy="151.45" r="3.2" fill="#cbd5e1" fill-opacity="0.85"/><circle cx="75.04" cy="138.54" r="3.2" fill="#cbd5e1" fill-opacity="0.85"/><circle cx="75.04" cy="125.63" r="3.2" fill="#cbd5e1" fill-opacity="0.85"/><circle cx="75.04" cy="112.72" r="3.2" fill="#cbd5e1" fill-opacity="0.85"/><circle cx="75.04" cy="99.81" r="3.2" fill="#cbd5e1" fill-opacity="0.85"/><circle cx="75.04" cy="86.89" r="3.2" fill="#cbd5e1" fill-opacity="0.85"/><circle cx="75.04" cy="73.98" r="3.2" fill="#cbd5e1" fill-opacity="0.85"/><circle cx="75.04" cy="61.07" r="3.2" fill="#cbd5e1" fill-opacity="0.85"/><circle cx="75.04" cy="48.16" r="3.2" fill="#cbd5e1" fill-opacity="0.85"/><circle cx="75.04" cy="37.83" r="3.2" fill="#cbd5e1" fill-opacity="0.85"/><circle cx="75.04" cy="24.92" r="3.2" fill="#cbd5e1" fill-opacity="0.85"/><circle cx="87.80" cy="216.00" r="3.2" fill="#cbd5e1" fill-opacity="0.85"/><circle cx="87.80" cy="203.09" r="3.2" fill="#cbd5e1" fill-opacity="0.85"/><circle cx="87.80" cy="190.18" r="3.2" fill="#cbd5e1" fill-opacity="0.85"/><circle cx="87.80" cy="177.27" r="3.2" fill="#cbd5e1" fill-opacity="0.85"/><circle cx="87.80" cy="164.36" r="3.2" fill="#cbd5e1" fill-opacity="0.85"/><circle cx="87.80" cy="151.45" r="3.2" fill="#cbd5e1" fill-opacity="0.85"/><circle cx="87.80" cy="138.54" r="3.2" fill="#cbd5e1" fill-opacity="0.85"/><circle cx="87.80" cy="125.63" r="3.2" fill="#cbd5e1" fill-opacity="0.85"/><circle cx="87.80" cy="112.72" r="3.2" fill="#cbd5e1" fill-opacity="0.85"/><circle cx="87.80" cy="99.81" r="3.2" fill="#cbd5e1" fill-opacity="0.85"/><circle cx="87.80" cy="86.89" r="3.2" fill="#cbd5e1" fill-opacity="0.85"/><circle cx="87.80" cy="73.98" r="3.2" fill="#cbd5e1" fill-opacity="0.85"/><circle cx="87.80" cy="61.07" r="3.2" fill="#cbd5e1" fill-opacity="0.85"/><circle cx="87.80" cy="48.16" r="3.2" fill="#cbd5e1" fill-opacity="0.85"/><circle cx="87.80" cy="37.83" r="3.2" fill="#cbd5e1" fill-opacity="0.85"/><circle cx="87.80" cy="24.92" r="3.2" fill="#cbd5e1" fill-opacity="0.85"/><circle cx="100.56" cy="216.00" r="3.2" fill="#cbd5e1" fill-opacity="0.85"/><circle cx="100.56" cy="203.09" r="3.2" fill="#cbd5e1" fill-opacity="0.85"/><circle cx="100.56" cy="190.18" r="3.2" fill="#cbd5e1" fill-opacity="0.85"/><circle cx="100.56" cy="177.27" r="3.2" fill="#cbd5e1" fill-opacity="0.85"/><circle cx="100.56" cy="164.36" r="3.2" fill="#cbd5e1" fill-opacity="0.85"/><circle cx="100.56" cy="151.45" r="3.2" fill="#cbd5e1" fill-opacity="0.85"/><circle cx="100.56" cy="138.54" r="3.2" fill="#cbd5e1" fill-opacity="0.85"/><circle cx="100.56" cy="125.63" r="3.2" fill="#cbd5e1" fill-opacity="0.85"/><circle cx="100.56" cy="112.72" r="3.2" fill="#cbd5e1" fill-opacity="0.85"/><circle cx="100.56" cy="99.81" r="3.2" fill="#cbd5e1" fill-opacity="0.85"/><circle cx="100.56" cy="86.89" r="3.2" fill="#cbd5e1" fill-opacity="0.85"/><circle cx="100.56" cy="73.98" r="3.2" fill="#cbd5e1" fill-opacity="0.85"/><circle cx="100.56" cy="61.07" r="3.2" fill="#cbd5e1" fill-opacity="0.85"/><circle cx="100.56" cy="48.16" r="3.2" fill="#cbd5e1" fill-opacity="0.85"/><circle cx="100.56" cy="37.83" r="3.2" fill="#cbd5e1" fill-opacity="0.85"/><circle cx="100.56" cy="24.92" r="3.2" fill="#cbd5e1" fill-opacity="0.85"/><circle cx="113.32" cy="216.00" r="3.2" fill="#cbd5e1" fill-opacity="0.85"/><circle cx="113.32" cy="203.09" r="3.2" fill="#cbd5e1" fill-opacity="0.85"/><circle cx="113.32" cy="190.18" r="3.2" fill="#cbd5e1" fill-opacity="0.85"/><circle cx="113.32" cy="177.27" r="3.2" fill="#cbd5e1" fill-opacity="0.85"/><circle cx="113.32" cy="164.36" r="3.2" fill="#cbd5e1" fill-opacity="0.85"/><circle cx="113.32" cy="151.45" r="3.2" fill="#cbd5e1" fill-opacity="0.85"/><circle cx="113.32" cy="138.54" r="3.2" fill="#cbd5e1" fill-opacity="0.85"/><circle cx="113.32" cy="125.63" r="3.2" fill="#cbd5e1" fill-opacity="0.85"/><circle cx="113.32" cy="112.72" r="3.2" fill="#cbd5e1" fill-opacity="0.85"/><circle cx="113.32" cy="99.81" r="3.2" fill="#cbd5e1" fill-opacity="0.85"/><circle cx="113.32" cy="86.89" r="3.2" fill="#cbd5e1" fill-opacity="0.85"/><circle cx="113.32" cy="73.98" r="3.2" fill="#cbd5e1" fill-opacity="0.85"/><circle cx="113.32" cy="61.07" r="3.2" fill="#cbd5e1" fill-opacity="0.85"/><circle cx="113.32" cy="48.16" r="3.2" fill="#cbd5e1" fill-opacity="0.85"/><circle cx="113.32" cy="37.83" r="3.2" fill="#cbd5e1" fill-opacity="0.85"/><circle cx="115.13" cy="24.46" r="3.2" fill="#cbd5e1" fill-opacity="0.85"/><circle cx="126.08" cy="216.00" r="3.2" fill="#cbd5e1" fill-opacity="0.85"/><circle cx="126.08" cy="203.09" r="3.2" fill="#cbd5e1" fill-opacity="0.85"/><circle cx="126.08" cy="190.18" r="3.2" fill="#cbd5e1" fill-opacity="0.85"/><circle cx="126.08" cy="177.27" r="3.2" fill="#cbd5e1" fill-opacity="0.85"/><circle cx="126.08" cy="164.36" r="3.2" fill="#cbd5e1" fill-opacity="0.85"/><circle cx="126.08" cy="151.45" r="3.2" fill="#cbd5e1" fill-opacity="0.85"/><circle cx="126.08" cy="138.54" r="3.2" fill="#cbd5e1" fill-opacity="0.85"/><circle cx="126.08" cy="125.63" r="3.2" fill="#cbd5e1" fill-opacity="0.85"/><circle cx="126.08" cy="112.72" r="3.2" fill="#cbd5e1" fill-opacity="0.85"/><circle cx="126.08" cy="99.81" r="3.2" fill="#cbd5e1" fill-opacity="0.85"/><circle cx="126.08" cy="86.89" r="3.2" fill="#cbd5e1" fill-opacity="0.85"/><circle cx="126.08" cy="73.98" r="3.2" fill="#cbd5e1" fill-opacity="0.85"/><circle cx="126.08" cy="61.07" r="3.2" fill="#cbd5e1" fill-opacity="0.85"/><circle cx="126.08" cy="48.16" r="3.2" fill="#cbd5e1" fill-opacity="0.85"/><circle cx="126.08" cy="37.83" r="3.2" fill="#cbd5e1" fill-opacity="0.85"/><circle cx="125.78" cy="24.69" r="3.2" fill="#cbd5e1" fill-opacity="0.85"/><circle cx="138.84" cy="216.00" r="3.2" fill="#cbd5e1" fill-opacity="0.85"/><circle cx="138.84" cy="203.09" r="3.2" fill="#cbd5e1" fill-opacity="0.85"/><circle cx="138.84" cy="190.18" r="3.2" fill="#cbd5e1" fill-opacity="0.85"/><circle cx="138.84" cy="177.27" r="3.2" fill="#cbd5e1" fill-opacity="0.85"/><circle cx="138.84" cy="164.36" r="3.2" fill="#cbd5e1" fill-opacity="0.85"/><circle cx="138.84" cy="151.45" r="3.2" fill="#cbd5e1" fill-opacity="0.85"/><circle cx="138.84" cy="138.54" r="3.2" fill="#cbd5e1" fill-opacity="0.85"/><circle cx="138.84" cy="125.63" r="3.2" fill="#cbd5e1" fill-opacity="0.85"/><circle cx="138.84" cy="112.72" r="3.2" fill="#cbd5e1" fill-opacity="0.85"/><circle cx="138.84" cy="99.81" r="3.2" fill="#cbd5e1" fill-opacity="0.85"/><circle cx="138.84" cy="86.89" r="3.2" fill="#cbd5e1" fill-opacity="0.85"/><circle cx="138.84" cy="73.98" r="3.2" fill="#cbd5e1" fill-opacity="0.85"/><circle cx="138.84" cy="61.07" r="3.2" fill="#cbd5e1" fill-opacity="0.85"/><circle cx="138.84" cy="48.16" r="3.2" fill="#cbd5e1" fill-opacity="0.85"/><circle cx="138.84" cy="37.83" r="3.2" fill="#cbd5e1" fill-opacity="0.85"/><circle cx="138.84" cy="24.92" r="3.2" fill="#cbd5e1" fill-opacity="0.85"/><circle cx="151.60" cy="216.00" r="3.2" fill="#cbd5e1" fill-opacity="0.85"/><circle cx="151.60" cy="203.09" r="3.2" fill="#cbd5e1" fill-opacity="0.85"/><circle cx="151.60" cy="190.18" r="3.2" fill="#cbd5e1" fill-opacity="0.85"/><circle cx="151.60" cy="177.27" r="3.2" fill="#cbd5e1" fill-opacity="0.85"/><circle cx="151.60" cy="164.36" r="3.2" fill="#cbd5e1" fill-opacity="0.85"/><circle cx="151.60" cy="151.45" r="3.2" fill="#cbd5e1" fill-opacity="0.85"/><circle cx="151.60" cy="138.54" r="3.2" fill="#cbd5e1" fill-opacity="0.85"/><circle cx="151.60" cy="125.63" r="3.2" fill="#cbd5e1" fill-opacity="0.85"/><circle cx="151.60" cy="112.72" r="3.2" fill="#cbd5e1" fill-opacity="0.85"/><circle cx="151.60" cy="99.81" r="3.2" fill="#cbd5e1" fill-opacity="0.85"/><circle cx="151.60" cy="86.89" r="3.2" fill="#cbd5e1" fill-opacity="0.85"/><circle cx="151.60" cy="73.98" r="3.2" fill="#cbd5e1" fill-opacity="0.85"/><circle cx="151.60" cy="61.07" r="3.2" fill="#cbd5e1" fill-opacity="0.85"/><circle cx="151.60" cy="48.16" r="3.2" fill="#cbd5e1" fill-opacity="0.85"/><circle cx="151.60" cy="37.83" r="3.2" fill="#cbd5e1" fill-opacity="0.85"/><circle cx="151.60" cy="24.92" r="3.2" fill="#cbd5e1" fill-opacity="0.85"/><circle cx="164.35" cy="216.00" r="3.2" fill="#cbd5e1" fill-opacity="0.85"/><circle cx="164.35" cy="203.09" r="3.2" fill="#cbd5e1" fill-opacity="0.85"/><circle cx="164.35" cy="190.18" r="3.2" fill="#cbd5e1" fill-opacity="0.85"/><circle cx="164.35" cy="177.27" r="3.2" fill="#cbd5e1" fill-opacity="0.85"/><circle cx="164.35" cy="164.36" r="3.2" fill="#cbd5e1" fill-opacity="0.85"/><circle cx="164.35" cy="151.45" r="3.2" fill="#cbd5e1" fill-opacity="0.85"/><circle cx="164.35" cy="138.54" r="3.2" fill="#cbd5e1" fill-opacity="0.85"/><circle cx="164.35" cy="125.63" r="3.2" fill="#cbd5e1" fill-opacity="0.85"/><circle cx="164.35" cy="112.72" r="3.2" fill="#cbd5e1" fill-opacity="0.85"/><circle cx="164.35" cy="99.81" r="3.2" fill="#cbd5e1" fill-opacity="0.85"/><circle cx="164.35" cy="86.89" r="3.2" fill="#cbd5e1" fill-opacity="0.85"/><circle cx="164.35" cy="73.98" r="3.2" fill="#cbd5e1" fill-opacity="0.85"/><circle cx="164.35" cy="61.07" r="3.2" fill="#cbd5e1" fill-opacity="0.85"/><circle cx="164.35" cy="48.16" r="3.2" fill="#cbd5e1" fill-opacity="0.85"/><circle cx="164.35" cy="37.83" r="3.2" fill="#cbd5e1" fill-opacity="0.85"/><circle cx="164.35" cy="24.92" r="3.2" fill="#cbd5e1" fill-opacity="0.85"/><circle cx="177.11" cy="216.00" r="3.2" fill="#cbd5e1" fill-opacity="0.85"/><circle cx="177.11" cy="203.09" r="3.2" fill="#cbd5e1" fill-opacity="0.85"/><circle cx="177.11" cy="190.18" r="3.2" fill="#cbd5e1" fill-opacity="0.85"/><circle cx="177.11" cy="177.27" r="3.2" fill="#cbd5e1" fill-opacity="0.85"/><circle cx="177.11" cy="164.36" r="3.2" fill="#cbd5e1" fill-opacity="0.85"/><circle cx="177.11" cy="151.45" r="3.2" fill="#cbd5e1" fill-opacity="0.85"/><circle cx="177.11" cy="138.54" r="3.2" fill="#cbd5e1" fill-opacity="0.85"/><circle cx="177.11" cy="125.63" r="3.2" fill="#cbd5e1" fill-opacity="0.85"/><circle cx="177.11" cy="112.72" r="3.2" fill="#cbd5e1" fill-opacity="0.85"/><circle cx="177.11" cy="99.81" r="3.2" fill="#cbd5e1" fill-opacity="0.85"/><circle cx="177.11" cy="86.89" r="3.2" fill="#cbd5e1" fill-opacity="0.85"/><circle cx="177.11" cy="73.98" r="3.2" fill="#cbd5e1" fill-opacity="0.85"/><circle cx="177.11" cy="61.07" r="3.2" fill="#cbd5e1" fill-opacity="0.85"/><circle cx="177.11" cy="48.16" r="3.2" fill="#cbd5e1" fill-opacity="0.85"/><circle cx="177.11" cy="37.83" r="3.2" fill="#cbd5e1" fill-opacity="0.85"/><circle cx="177.11" cy="24.92" r="3.2" fill="#cbd5e1" fill-opacity="0.85"/><circle cx="189.87" cy="216.00" r="3.2" fill="#cbd5e1" fill-opacity="0.85"/><circle cx="189.87" cy="203.09" r="3.2" fill="#cbd5e1" fill-opacity="0.85"/><circle cx="189.87" cy="190.18" r="3.2" fill="#cbd5e1" fill-opacity="0.85"/><circle cx="189.87" cy="177.27" r="3.2" fill="#cbd5e1" fill-opacity="0.85"/><circle cx="189.87" cy="164.36" r="3.2" fill="#cbd5e1" fill-opacity="0.85"/><circle cx="189.87" cy="151.45" r="3.2" fill="#cbd5e1" fill-opacity="0.85"/><circle cx="189.87" cy="138.54" r="3.2" fill="#cbd5e1" fill-opacity="0.85"/><circle cx="189.87" cy="125.63" r="3.2" fill="#cbd5e1" fill-opacity="0.85"/><circle cx="189.87" cy="112.72" r="3.2" fill="#cbd5e1" fill-opacity="0.85"/><circle cx="189.87" cy="99.81" r="3.2" fill="#cbd5e1" fill-opacity="0.85"/><circle cx="189.87" cy="86.89" r="3.2" fill="#cbd5e1" fill-opacity="0.85"/><circle cx="189.87" cy="73.98" r="3.2" fill="#cbd5e1" fill-opacity="0.85"/><circle cx="189.87" cy="61.07" r="3.2" fill="#cbd5e1" fill-opacity="0.85"/><circle cx="189.87" cy="48.16" r="3.2" fill="#cbd5e1" fill-opacity="0.85"/><circle cx="189.87" cy="37.83" r="3.2" fill="#cbd5e1" fill-opacity="0.85"/><circle cx="191.18" cy="24.62" r="3.2" fill="#cbd5e1" fill-opacity="0.85"/><circle cx="202.63" cy="216.00" r="3.2" fill="#cbd5e1" fill-opacity="0.85"/><circle cx="202.63" cy="203.09" r="3.2" fill="#cbd5e1" fill-opacity="0.85"/><circle cx="202.63" cy="190.18" r="3.2" fill="#cbd5e1" fill-opacity="0.85"/><circle cx="202.63" cy="177.27" r="3.2" fill="#cbd5e1" fill-opacity="0.85"/><circle cx="202.63" cy="164.36" r="3.2" fill="#cbd5e1" fill-opacity="0.85"/><circle cx="202.63" cy="151.45" r="3.2" fill="#cbd5e1" fill-opacity="0.85"/><circle cx="202.63" cy="138.54" r="3.2" fill="#cbd5e1" fill-opacity="0.85"/><circle cx="202.63" cy="125.63" r="3.2" fill="#cbd5e1" fill-opacity="0.85"/><circle cx="202.63" cy="112.72" r="3.2" fill="#cbd5e1" fill-opacity="0.85"/><circle cx="202.63" cy="99.81" r="3.2" fill="#cbd5e1" fill-opacity="0.85"/><circle cx="202.63" cy="86.89" r="3.2" fill="#cbd5e1" fill-opacity="0.85"/><circle cx="202.63" cy="73.98" r="3.2" fill="#cbd5e1" fill-opacity="0.85"/><circle cx="202.63" cy="61.07" r="3.2" fill="#cbd5e1" fill-opacity="0.85"/><circle cx="202.63" cy="48.16" r="3.2" fill="#cbd5e1" fill-opacity="0.85"/><circle cx="202.63" cy="37.83" r="3.2" fill="#cbd5e1" fill-opacity="0.85"/><circle cx="202.28" cy="24.55" r="3.2" fill="#cbd5e1" fill-opacity="0.85"/><circle cx="215.39" cy="216.00" r="3.2" fill="#cbd5e1" fill-opacity="0.85"/><circle cx="215.39" cy="203.09" r="3.2" fill="#cbd5e1" fill-opacity="0.85"/><circle cx="215.39" cy="190.18" r="3.2" fill="#cbd5e1" fill-opacity="0.85"/><circle cx="215.39" cy="177.27" r="3.2" fill="#cbd5e1" fill-opacity="0.85"/><circle cx="215.39" cy="164.36" r="3.2" fill="#cbd5e1" fill-opacity="0.85"/><circle cx="215.39" cy="151.45" r="3.2" fill="#cbd5e1" fill-opacity="0.85"/><circle cx="215.39" cy="138.54" r="3.2" fill="#cbd5e1" fill-opacity="0.85"/><circle cx="215.39" cy="125.63" r="3.2" fill="#cbd5e1" fill-opacity="0.85"/><circle cx="215.39" cy="112.72" r="3.2" fill="#cbd5e1" fill-opacity="0.85"/><circle cx="215.39" cy="99.81" r="3.2" fill="#cbd5e1" fill-opacity="0.85"/><circle cx="215.39" cy="86.89" r="3.2" fill="#cbd5e1" fill-opacity="0.85"/><circle cx="215.39" cy="73.98" r="3.2" fill="#cbd5e1" fill-opacity="0.85"/><circle cx="215.39" cy="61.07" r="3.2" fill="#cbd5e1" fill-opacity="0.85"/><circle cx="215.39" cy="48.16" r="3.2" fill="#cbd5e1" fill-opacity="0.85"/><circle cx="215.39" cy="37.83" r="3.2" fill="#cbd5e1" fill-opacity="0.85"/><circle cx="215.39" cy="24.92" r="3.2" fill="#cbd5e1" fill-opacity="0.85"/><circle cx="228.15" cy="216.00" r="3.2" fill="#cbd5e1" fill-opacity="0.85"/><circle cx="228.15" cy="203.09" r="3.2" fill="#cbd5e1" fill-opacity="0.85"/><circle cx="228.15" cy="190.18" r="3.2" fill="#cbd5e1" fill-opacity="0.85"/><circle cx="228.15" cy="177.27" r="3.2" fill="#cbd5e1" fill-opacity="0.85"/><circle cx="228.15" cy="164.36" r="3.2" fill="#cbd5e1" fill-opacity="0.85"/><circle cx="228.15" cy="151.45" r="3.2" fill="#cbd5e1" fill-opacity="0.85"/><circle cx="228.15" cy="138.54" r="3.2" fill="#cbd5e1" fill-opacity="0.85"/><circle cx="228.15" cy="125.63" r="3.2" fill="#cbd5e1" fill-opacity="0.85"/><circle cx="228.15" cy="112.72" r="3.2" fill="#cbd5e1" fill-opacity="0.85"/><circle cx="228.15" cy="99.81" r="3.2" fill="#cbd5e1" fill-opacity="0.85"/><circle cx="228.15" cy="86.89" r="3.2" fill="#cbd5e1" fill-opacity="0.85"/><circle cx="228.15" cy="73.98" r="3.2" fill="#cbd5e1" fill-opacity="0.85"/><circle cx="228.15" cy="61.07" r="3.2" fill="#cbd5e1" fill-opacity="0.85"/><circle cx="228.15" cy="48.16" r="3.2" fill="#cbd5e1" fill-opacity="0.85"/><circle cx="228.15" cy="37.83" r="3.2" fill="#cbd5e1" fill-opacity="0.85"/><circle cx="228.15" cy="24.92" r="3.2" fill="#cbd5e1" fill-opacity="0.85"/><circle cx="240.91" cy="216.00" r="3.2" fill="#cbd5e1" fill-opacity="0.85"/><circle cx="240.91" cy="203.09" r="3.2" fill="#cbd5e1" fill-opacity="0.85"/><circle cx="240.91" cy="190.18" r="3.2" fill="#cbd5e1" fill-opacity="0.85"/><circle cx="240.91" cy="177.27" r="3.2" fill="#cbd5e1" fill-opacity="0.85"/><circle cx="240.91" cy="164.36" r="3.2" fill="#cbd5e1" fill-opacity="0.85"/><circle cx="240.91" cy="151.45" r="3.2" fill="#cbd5e1" fill-opacity="0.85"/><circle cx="240.91" cy="138.54" r="3.2" fill="#cbd5e1" fill-opacity="0.85"/><circle cx="240.91" cy="125.63" r="3.2" fill="#cbd5e1" fill-opacity="0.85"/><circle cx="240.91" cy="112.72" r="3.2" fill="#cbd5e1" fill-opacity="0.85"/><circle cx="240.91" cy="99.81" r="3.2" fill="#cbd5e1" fill-opacity="0.85"/><circle cx="240.91" cy="86.89" r="3.2" fill="#cbd5e1" fill-opacity="0.85"/><circle cx="240.91" cy="73.98" r="3.2" fill="#cbd5e1" fill-opacity="0.85"/><circle cx="240.91" cy="61.07" r="3.2" fill="#cbd5e1" fill-opacity="0.85"/><circle cx="240.91" cy="48.16" r="3.2" fill="#cbd5e1" fill-opacity="0.85"/><circle cx="240.91" cy="37.83" r="3.2" fill="#cbd5e1" fill-opacity="0.85"/><circle cx="240.91" cy="24.92" r="3.2" fill="#cbd5e1" fill-opacity="0.85"/><circle cx="253.67" cy="216.00" r="3.2" fill="#cbd5e1" fill-opacity="0.85"/><circle cx="253.67" cy="203.09" r="3.2" fill="#cbd5e1" fill-opacity="0.85"/><circle cx="253.67" cy="190.18" r="3.2" fill="#cbd5e1" fill-opacity="0.85"/><circle cx="253.67" cy="177.27" r="3.2" fill="#cbd5e1" fill-opacity="0.85"/><circle cx="253.67" cy="164.36" r="3.2" fill="#cbd5e1" fill-opacity="0.85"/><circle cx="253.67" cy="151.45" r="3.2" fill="#cbd5e1" fill-opacity="0.85"/><circle cx="253.67" cy="138.54" r="3.2" fill="#cbd5e1" fill-opacity="0.85"/><circle cx="253.67" cy="125.63" r="3.2" fill="#cbd5e1" fill-opacity="0.85"/><circle cx="253.67" cy="112.72" r="3.2" fill="#cbd5e1" fill-opacity="0.85"/><circle cx="253.67" cy="99.81" r="3.2" fill="#cbd5e1" fill-opacity="0.85"/><circle cx="253.67" cy="86.89" r="3.2" fill="#cbd5e1" fill-opacity="0.85"/><circle cx="253.67" cy="73.98" r="3.2" fill="#cbd5e1" fill-opacity="0.85"/><circle cx="253.67" cy="61.07" r="3.2" fill="#cbd5e1" fill-opacity="0.85"/><circle cx="253.67" cy="48.16" r="3.2" fill="#cbd5e1" fill-opacity="0.85"/><circle cx="253.67" cy="37.83" r="3.2" fill="#cbd5e1" fill-opacity="0.85"/><circle cx="253.67" cy="24.92" r="3.2" fill="#cbd5e1" fill-opacity="0.85"/><circle cx="266.43" cy="216.00" r="3.2" fill="#cbd5e1" fill-opacity="0.85"/><circle cx="266.43" cy="203.09" r="3.2" fill="#cbd5e1" fill-opacity="0.85"/><circle cx="266.43" cy="190.18" r="3.2" fill="#cbd5e1" fill-opacity="0.85"/><circle cx="266.43" cy="177.27" r="3.2" fill="#cbd5e1" fill-opacity="0.85"/><circle cx="266.43" cy="164.36" r="3.2" fill="#cbd5e1" fill-opacity="0.85"/><circle cx="266.43" cy="151.45" r="3.2" fill="#cbd5e1" fill-opacity="0.85"/><circle cx="266.43" cy="138.54" r="3.2" fill="#cbd5e1" fill-opacity="0.85"/><circle cx="266.43" cy="125.63" r="3.2" fill="#cbd5e1" fill-opacity="0.85"/><circle cx="266.43" cy="112.72" r="3.2" fill="#cbd5e1" fill-opacity="0.85"/><circle cx="266.43" cy="99.81" r="3.2" fill="#cbd5e1" fill-opacity="0.85"/><circle cx="266.43" cy="86.89" r="3.2" fill="#cbd5e1" fill-opacity="0.85"/><circle cx="266.43" cy="73.98" r="3.2" fill="#cbd5e1" fill-opacity="0.85"/><circle cx="266.43" cy="61.07" r="3.2" fill="#cbd5e1" fill-opacity="0.85"/><circle cx="266.43" cy="48.16" r="3.2" fill="#cbd5e1" fill-opacity="0.85"/><circle cx="266.43" cy="37.83" r="3.2" fill="#cbd5e1" fill-opacity="0.85"/><circle cx="266.43" cy="24.92" r="3.2" fill="#cbd5e1" fill-opacity="0.85"/><circle cx="279.19" cy="216.00" r="3.2" fill="#cbd5e1" fill-opacity="0.85"/><circle cx="279.19" cy="203.09" r="3.2" fill="#cbd5e1" fill-opacity="0.85"/><circle cx="279.19" cy="190.18" r="3.2" fill="#cbd5e1" fill-opacity="0.85"/><circle cx="279.19" cy="177.27" r="3.2" fill="#cbd5e1" fill-opacity="0.85"/><circle cx="279.19" cy="164.36" r="3.2" fill="#cbd5e1" fill-opacity="0.85"/><circle cx="279.57" cy="150.92" r="3.2" fill="#cbd5e1" fill-opacity="0.85"/><circle cx="279.34" cy="138.90" r="3.2" fill="#cbd5e1" fill-opacity="0.85"/><circle cx="279.19" cy="125.63" r="3.2" fill="#cbd5e1" fill-opacity="0.85"/><circle cx="279.19" cy="112.72" r="3.2" fill="#cbd5e1" fill-opacity="0.85"/><circle cx="279.19" cy="99.81" r="3.2" fill="#cbd5e1" fill-opacity="0.85"/><circle cx="279.47" cy="86.69" r="3.2" fill="#cbd5e1" fill-opacity="0.85"/><circle cx="279.41" cy="74.64" r="3.2" fill="#cbd5e1" fill-opacity="0.85"/><circle cx="279.19" cy="61.07" r="3.2" fill="#cbd5e1" fill-opacity="0.85"/><circle cx="279.19" cy="48.16" r="3.2" fill="#cbd5e1" fill-opacity="0.85"/><circle cx="279.19" cy="37.83" r="3.2" fill="#cbd5e1" fill-opacity="0.85"/><circle cx="278.90" cy="24.46" r="3.2" fill="#cbd5e1" fill-opacity="0.85"/><circle cx="291.95" cy="216.00" r="3.2" fill="#cbd5e1" fill-opacity="0.85"/><circle cx="291.95" cy="203.09" r="3.2" fill="#cbd5e1" fill-opacity="0.85"/><circle cx="291.95" cy="190.18" r="3.2" fill="#cbd5e1" fill-opacity="0.85"/><circle cx="291.95" cy="177.27" r="3.2" fill="#cbd5e1" fill-opacity="0.85"/><circle cx="291.95" cy="164.36" r="3.2" fill="#cbd5e1" fill-opacity="0.85"/><circle cx="290.31" cy="150.40" r="3.2" fill="#cbd5e1" fill-opacity="0.85"/><circle cx="291.13" cy="139.45" r="3.2" fill="#cbd5e1" fill-opacity="0.85"/><circle cx="291.95" cy="125.63" r="3.2" fill="#cbd5e1" fill-opacity="0.85"/><circle cx="291.95" cy="112.72" r="3.2" fill="#cbd5e1" fill-opacity="0.85"/><circle cx="291.95" cy="99.81" r="3.2" fill="#cbd5e1" fill-opacity="0.85"/><circle cx="290.64" cy="86.44" r="3.2" fill="#cbd5e1" fill-opacity="0.85"/><circle cx="290.86" cy="75.52" r="3.2" fill="#cbd5e1" fill-opacity="0.85"/><circle cx="291.95" cy="61.07" r="3.2" fill="#cbd5e1" fill-opacity="0.85"/><circle cx="291.95" cy="48.16" r="3.2" fill="#cbd5e1" fill-opacity="0.85"/><circle cx="291.95" cy="37.83" r="3.2" fill="#cbd5e1" fill-opacity="0.85"/><circle cx="291.95" cy="24.92" r="3.2" fill="#cbd5e1" fill-opacity="0.85"/>
</g>
<g transform="translate(360 72)">
<rect x="0" y="0" width="320" height="240" rx="12" fill="#111827" stroke="#334155"/>
<text x="16" y="24" fill="#cbd5e1" font-family="ui-sans-serif, system-ui, sans-serif" font-size="14" font-weight="600">Cluster labels (Euclidean)</text>
<circle cx="40.63" cy="138.06" r="4.6" fill="#38bdf8"/><circle cx="40.63" cy="131.06" r="4.6" fill="#38bdf8"/><circle cx="47.25" cy="138.06" r="4.6" fill="#38bdf8"/><circle cx="47.25" cy="131.06" r="4.6" fill="#38bdf8"/><circle cx="50.70" cy="24.00" r="4.6" fill="#f97316"/><circle cx="50.70" cy="24.00" r="4.6" fill="#f97316"/><circle cx="50.70" cy="24.00" r="4.6" fill="#f97316"/><circle cx="50.70" cy="24.00" r="4.6" fill="#f97316"/><circle cx="77.99" cy="175.27" r="4.6" fill="#22c55e"/><circle cx="77.99" cy="165.94" r="4.6" fill="#22c55e"/><circle cx="87.27" cy="175.27" r="4.6" fill="#22c55e"/><circle cx="87.27" cy="165.94" r="4.6" fill="#22c55e"/><circle cx="104.28" cy="60.57" r="4.6" fill="#a855f7"/><circle cx="106.03" cy="58.98" r="4.6" fill="#a855f7"/><circle cx="104.48" cy="52.62" r="4.6" fill="#a855f7"/><circle cx="106.03" cy="52.62" r="4.6" fill="#a855f7"/><circle cx="111.47" cy="61.10" r="4.6" fill="#a855f7"/><circle cx="112.25" cy="58.98" r="4.6" fill="#a855f7"/><circle cx="111.63" cy="52.62" r="4.6" fill="#a855f7"/><circle cx="112.25" cy="52.62" r="4.6" fill="#a855f7"/><circle cx="116.95" cy="24.00" r="4.6" fill="#f472b6"/><circle cx="116.95" cy="24.00" r="4.6" fill="#f472b6"/><circle cx="116.95" cy="24.00" r="4.6" fill="#f472b6"/><circle cx="116.95" cy="24.00" r="4.6" fill="#f472b6"/><circle cx="127.65" cy="189.89" r="4.6" fill="#facc15"/><circle cx="128.01" cy="189.89" r="4.6" fill="#facc15"/><circle cx="124.90" cy="24.00" r="4.6" fill="#f472b6"/><circle cx="124.90" cy="24.00" r="4.6" fill="#f472b6"/><circle cx="124.90" cy="24.00" r="4.6" fill="#f472b6"/><circle cx="124.90" cy="24.00" r="4.6" fill="#f472b6"/><circle cx="156.70" cy="163.92" r="4.6" fill="#2dd4bf"/><circle cx="156.70" cy="163.92" r="4.6" fill="#2dd4bf"/><circle cx="156.70" cy="163.92" r="4.6" fill="#60a5fa"/><circle cx="163.70" cy="163.92" r="4.6" fill="#2dd4bf"/><circle cx="163.70" cy="163.92" r="4.6" fill="#2dd4bf"/><circle cx="163.70" cy="163.92" r="4.6" fill="#60a5fa"/><circle cx="193.80" cy="24.00" r="4.6" fill="#38bdf8"/><circle cx="193.80" cy="24.00" r="4.6" fill="#38bdf8"/><circle cx="193.80" cy="24.00" r="4.6" fill="#38bdf8"/><circle cx="193.80" cy="24.00" r="4.6" fill="#38bdf8"/><circle cx="201.75" cy="24.00" r="4.6" fill="#38bdf8"/><circle cx="201.75" cy="24.00" r="4.6" fill="#38bdf8"/><circle cx="201.75" cy="24.00" r="4.6" fill="#38bdf8"/><circle cx="201.75" cy="24.00" r="4.6" fill="#38bdf8"/><circle cx="229.84" cy="97.35" r="4.6" fill="#f97316"/><circle cx="229.84" cy="91.63" r="4.6" fill="#f97316"/><circle cx="236.20" cy="97.35" r="4.6" fill="#f97316"/><circle cx="236.20" cy="91.63" r="4.6" fill="#f97316"/><circle cx="280.72" cy="149.35" r="4.6" fill="#22c55e"/><circle cx="280.72" cy="149.35" r="4.6" fill="#22c55e"/><circle cx="280.72" cy="149.35" r="4.6" fill="#22c55e"/><circle cx="280.72" cy="149.35" r="4.6" fill="#22c55e"/><circle cx="280.72" cy="142.19" r="4.6" fill="#22c55e"/><circle cx="280.72" cy="142.19" r="4.6" fill="#22c55e"/><circle cx="280.72" cy="142.19" r="4.6" fill="#22c55e"/><circle cx="280.72" cy="142.19" r="4.6" fill="#22c55e"/><circle cx="280.72" cy="85.75" r="4.6" fill="#a855f7"/><circle cx="280.72" cy="85.75" r="4.6" fill="#a855f7"/><circle cx="280.72" cy="85.75" r="4.6" fill="#a855f7"/><circle cx="280.72" cy="85.75" r="4.6" fill="#a855f7"/><circle cx="280.72" cy="78.59" r="4.6" fill="#a855f7"/><circle cx="280.72" cy="78.59" r="4.6" fill="#a855f7"/><circle cx="280.72" cy="78.59" r="4.6" fill="#a855f7"/><circle cx="280.72" cy="78.59" r="4.6" fill="#a855f7"/><circle cx="278.60" cy="24.00" r="4.6" fill="#f472b6"/><circle cx="278.60" cy="24.00" r="4.6" fill="#f472b6"/><circle cx="278.60" cy="24.00" r="4.6" fill="#f472b6"/><circle cx="278.60" cy="24.00" r="4.6" fill="#f472b6"/><circle cx="288.67" cy="149.35" r="4.6" fill="#22c55e"/><circle cx="288.67" cy="149.35" r="4.6" fill="#22c55e"/><circle cx="288.67" cy="149.35" r="4.6" fill="#22c55e"/><circle cx="288.67" cy="149.35" r="4.6" fill="#22c55e"/><circle cx="288.67" cy="142.19" r="4.6" fill="#22c55e"/><circle cx="288.67" cy="142.19" r="4.6" fill="#22c55e"/><circle cx="288.67" cy="142.19" r="4.6" fill="#22c55e"/><circle cx="288.67" cy="142.19" r="4.6" fill="#22c55e"/><circle cx="288.67" cy="85.75" r="4.6" fill="#a855f7"/><circle cx="288.67" cy="85.75" r="4.6" fill="#a855f7"/><circle cx="288.67" cy="85.75" r="4.6" fill="#a855f7"/><circle cx="288.67" cy="85.75" r="4.6" fill="#a855f7"/><circle cx="288.67" cy="78.59" r="4.6" fill="#a855f7"/><circle cx="288.67" cy="78.59" r="4.6" fill="#a855f7"/><circle cx="288.67" cy="78.59" r="4.6" fill="#a855f7"/><circle cx="288.67" cy="78.59" r="4.6" fill="#a855f7"/>
</g>
<g transform="translate(696 72)">
<rect x="0" y="0" width="240" height="240" rx="12" fill="#111827" stroke="#334155"/>
<text x="16" y="24" fill="#cbd5e1" font-family="ui-sans-serif, system-ui, sans-serif" font-size="14" font-weight="600">Pipeline</text>
<text x="16" y="52.0" fill="#94a3b8" font-family="ui-monospace, monospace" font-size="12">0. PCD / LAS / COPC</text><text x="16" y="80.0" fill="#94a3b8" font-family="ui-monospace, monospace" font-size="12">1. Voxel downsample</text><text x="16" y="108.0" fill="#94a3b8" font-family="ui-monospace, monospace" font-size="12">2. Normal estimation</text><text x="16" y="136.0" fill="#94a3b8" font-family="ui-monospace, monospace" font-size="12">3. Plane RANSAC</text><text x="16" y="164.0" fill="#94a3b8" font-family="ui-monospace, monospace" font-size="12">4. Euclidean cluster</text><text x="16" y="192.0" fill="#94a3b8" font-family="ui-monospace, monospace" font-size="12">5. Optional ICP</text><text x="16" y="228" fill="#64748b" font-family="ui-sans-serif, system-ui, sans-serif" font-size="11">13 cluster(s) in preview scene</text>
</g>
</svg>
