<?xml version="1.0" encoding="UTF-8"?>
<svg xmlns="http://www.w3.org/2000/svg" width="960" height="320" viewBox="0 0 960 320" role="img" aria-labelledby="title desc">
<title id="title">SpatialRust MVP pipeline preview</title>
<desc id="desc">Top-down XY view of plane inliers and Euclidean cluster labels produced by the MVP pipeline.</desc>
<rect width="960" height="320" fill="#0f172a"/>
<text x="24" y="34" fill="#e2e8f0" font-family="ui-sans-serif, system-ui, sans-serif" font-size="20" font-weight="700">SpatialRust MVP pipeline</text>
<text x="24" y="58" fill="#94a3b8" font-family="ui-sans-serif, system-ui, sans-serif" font-size="13">Real output from cargo run --example readme_mvp_preview</text>
<g transform="translate(24 72)">
<rect x="0" y="0" width="320" height="240" rx="12" fill="#111827" stroke="#334155"/>
<text x="16" y="24" fill="#cbd5e1" font-family="ui-sans-serif, system-ui, sans-serif" font-size="14" font-weight="600">Plane inliers (RANSAC)</text>
<circle cx="24.00" cy="216.00" r="3.2" fill="#cbd5e1" fill-opacity="0.85"/><circle cx="24.00" cy="198.55" r="3.2" fill="#cbd5e1" fill-opacity="0.85"/><circle cx="24.00" cy="181.09" r="3.2" fill="#cbd5e1" fill-opacity="0.85"/><circle cx="24.00" cy="163.64" r="3.2" fill="#cbd5e1" fill-opacity="0.85"/><circle cx="24.00" cy="146.18" r="3.2" fill="#cbd5e1" fill-opacity="0.85"/><circle cx="24.00" cy="128.73" r="3.2" fill="#cbd5e1" fill-opacity="0.85"/><circle cx="24.00" cy="111.27" r="3.2" fill="#cbd5e1" fill-opacity="0.85"/><circle cx="24.00" cy="93.82" r="3.2" fill="#cbd5e1" fill-opacity="0.85"/><circle cx="24.00" cy="76.36" r="3.2" fill="#cbd5e1" fill-opacity="0.85"/><circle cx="24.00" cy="58.91" r="3.2" fill="#cbd5e1" fill-opacity="0.85"/><circle cx="24.00" cy="41.45" r="3.2" fill="#cbd5e1" fill-opacity="0.85"/><circle cx="24.00" cy="24.00" r="3.2" fill="#cbd5e1" fill-opacity="0.85"/><circle cx="41.45" cy="216.00" r="3.2" fill="#cbd5e1" fill-opacity="0.85"/><circle cx="41.45" cy="198.55" r="3.2" fill="#cbd5e1" fill-opacity="0.85"/><circle cx="41.45" cy="181.09" r="3.2" fill="#cbd5e1" fill-opacity="0.85"/><circle cx="41.45" cy="163.64" r="3.2" fill="#cbd5e1" fill-opacity="0.85"/><circle cx="41.45" cy="146.18" r="3.2" fill="#cbd5e1" fill-opacity="0.85"/><circle cx="41.45" cy="128.73" r="3.2" fill="#cbd5e1" fill-opacity="0.85"/><circle cx="41.45" cy="111.27" r="3.2" fill="#cbd5e1" fill-opacity="0.85"/><circle cx="41.45" cy="93.82" r="3.2" fill="#cbd5e1" fill-opacity="0.85"/><circle cx="41.45" cy="76.36" r="3.2" fill="#cbd5e1" fill-opacity="0.85"/><circle cx="41.45" cy="58.91" r="3.2" fill="#cbd5e1" fill-opacity="0.85"/><circle cx="41.45" cy="41.45" r="3.2" fill="#cbd5e1" fill-opacity="0.85"/><circle cx="41.45" cy="24.00" r="3.2" fill="#cbd5e1" fill-opacity="0.85"/><circle cx="58.91" cy="216.00" r="3.2" fill="#cbd5e1" fill-opacity="0.85"/><circle cx="58.91" cy="198.55" r="3.2" fill="#cbd5e1" fill-opacity="0.85"/><circle cx="58.91" cy="181.09" r="3.2" fill="#cbd5e1" fill-opacity="0.85"/><circle cx="58.91" cy="163.64" r="3.2" fill="#cbd5e1" fill-opacity="0.85"/><circle cx="58.91" cy="146.18" r="3.2" fill="#cbd5e1" fill-opacity="0.85"/><circle cx="58.91" cy="128.73" r="3.2" fill="#cbd5e1" fill-opacity="0.85"/><circle cx="58.91" cy="111.27" r="3.2" fill="#cbd5e1" fill-opacity="0.85"/><circle cx="58.91" cy="93.82" r="3.2" fill="#cbd5e1" fill-opacity="0.85"/><circle cx="58.91" cy="76.36" r="3.2" fill="#cbd5e1" fill-opacity="0.85"/><circle cx="58.91" cy="58.91" r="3.2" fill="#cbd5e1" fill-opacity="0.85"/><circle cx="58.91" cy="41.45" r="3.2" fill="#cbd5e1" fill-opacity="0.85"/><circle cx="58.91" cy="24.00" r="3.2" fill="#cbd5e1" fill-opacity="0.85"/><circle cx="76.36" cy="216.00" r="3.2" fill="#cbd5e1" fill-opacity="0.85"/><circle cx="76.36" cy="198.55" r="3.2" fill="#cbd5e1" fill-opacity="0.85"/><circle cx="76.36" cy="181.09" r="3.2" fill="#cbd5e1" fill-opacity="0.85"/><circle cx="76.36" cy="163.64" r="3.2" fill="#cbd5e1" fill-opacity="0.85"/><circle cx="76.36" cy="146.18" r="3.2" fill="#cbd5e1" fill-opacity="0.85"/><circle cx="76.36" cy="128.73" r="3.2" fill="#cbd5e1" fill-opacity="0.85"/><circle cx="76.36" cy="111.27" r="3.2" fill="#cbd5e1" fill-opacity="0.85"/><circle cx="76.36" cy="93.82" r="3.2" fill="#cbd5e1" fill-opacity="0.85"/><circle cx="76.36" cy="76.36" r="3.2" fill="#cbd5e1" fill-opacity="0.85"/><circle cx="76.36" cy="58.91" r="3.2" fill="#cbd5e1" fill-opacity="0.85"/><circle cx="76.36" cy="41.45" r="3.2" fill="#cbd5e1" fill-opacity="0.85"/><circle cx="76.36" cy="24.00" r="3.2" fill="#cbd5e1" fill-opacity="0.85"/><circle cx="93.82" cy="216.00" r="3.2" fill="#cbd5e1" fill-opacity="0.85"/><circle cx="93.82" cy="198.55" r="3.2" fill="#cbd5e1" fill-opacity="0.85"/><circle cx="93.82" cy="181.09" r="3.2" fill="#cbd5e1" fill-opacity="0.85"/><circle cx="93.82" cy="163.64" r="3.2" fill="#cbd5e1" fill-opacity="0.85"/><circle cx="93.82" cy="146.18" r="3.2" fill="#cbd5e1" fill-opacity="0.85"/><circle cx="93.82" cy="128.73" r="3.2" fill="#cbd5e1" fill-opacity="0.85"/><circle cx="93.82" cy="111.27" r="3.2" fill="#cbd5e1" fill-opacity="0.85"/><circle cx="93.82" cy="93.82" r="3.2" fill="#cbd5e1" fill-opacity="0.85"/><circle cx="93.82" cy="76.36" r="3.2" fill="#cbd5e1" fill-opacity="0.85"/><circle cx="93.82" cy="58.91" r="3.2" fill="#cbd5e1" fill-opacity="0.85"/><circle cx="93.82" cy="41.45" r="3.2" fill="#cbd5e1" fill-opacity="0.85"/><circle cx="93.82" cy="24.00" r="3.2" fill="#cbd5e1" fill-opacity="0.85"/><circle cx="111.27" cy="216.00" r="3.2" fill="#cbd5e1" fill-opacity="0.85"/><circle cx="111.27" cy="198.55" r="3.2" fill="#cbd5e1" fill-opacity="0.85"/><circle cx="111.27" cy="181.09" r="3.2" fill="#cbd5e1" fill-opacity="0.85"/><circle cx="111.27" cy="163.64" r="3.2" fill="#cbd5e1" fill-opacity="0.85"/><circle cx="111.27" cy="146.18" r="3.2" fill="#cbd5e1" fill-opacity="0.85"/><circle cx="111.27" cy="128.73" r="3.2" fill="#cbd5e1" fill-opacity="0.85"/><circle cx="111.27" cy="111.27" r="3.2" fill="#cbd5e1" fill-opacity="0.85"/><circle cx="111.27" cy="93.82" r="3.2" fill="#cbd5e1" fill-opacity="0.85"/><circle cx="111.27" cy="76.36" r="3.2" fill="#cbd5e1" fill-opacity="0.85"/><circle cx="111.27" cy="58.91" r="3.2" fill="#cbd5e1" fill-opacity="0.85"/><circle cx="111.27" cy="41.45" r="3.2" fill="#cbd5e1" fill-opacity="0.85"/><circle cx="111.27" cy="24.00" r="3.2" fill="#cbd5e1" fill-opacity="0.85"/><circle cx="128.73" cy="216.00" r="3.2" fill="#cbd5e1" fill-opacity="0.85"/><circle cx="128.73" cy="198.55" r="3.2" fill="#cbd5e1" fill-opacity="0.85"/><circle cx="128.73" cy="181.09" r="3.2" fill="#cbd5e1" fill-opacity="0.85"/><circle cx="128.73" cy="163.64" r="3.2" fill="#cbd5e1" fill-opacity="0.85"/><circle cx="128.73" cy="146.18" r="3.2" fill="#cbd5e1" fill-opacity="0.85"/><circle cx="128.73" cy="128.73" r="3.2" fill="#cbd5e1" fill-opacity="0.85"/><circle cx="128.73" cy="111.27" r="3.2" fill="#cbd5e1" fill-opacity="0.85"/><circle cx="128.73" cy="93.82" r="3.2" fill="#cbd5e1" fill-opacity="0.85"/><circle cx="128.73" cy="76.36" r="3.2" fill="#cbd5e1" fill-opacity="0.85"/><circle cx="128.73" cy="58.91" r="3.2" fill="#cbd5e1" fill-opacity="0.85"/><circle cx="128.73" cy="41.45" r="3.2" fill="#cbd5e1" fill-opacity="0.85"/><circle cx="128.73" cy="24.00" r="3.2" fill="#cbd5e1" fill-opacity="0.85"/><circle cx="146.18" cy="216.00" r="3.2" fill="#cbd5e1" fill-opacity="0.85"/><circle cx="146.18" cy="198.55" r="3.2" fill="#cbd5e1" fill-opacity="0.85"/><circle cx="146.18" cy="181.09" r="3.2" fill="#cbd5e1" fill-opacity="0.85"/><circle cx="146.18" cy="163.64" r="3.2" fill="#cbd5e1" fill-opacity="0.85"/><circle cx="146.18" cy="146.18" r="3.2" fill="#cbd5e1" fill-opacity="0.85"/><circle cx="146.18" cy="128.73" r="3.2" fill="#cbd5e1" fill-opacity="0.85"/><circle cx="146.18" cy="111.27" r="3.2" fill="#cbd5e1" fill-opacity="0.85"/><circle cx="146.18" cy="93.82" r="3.2" fill="#cbd5e1" fill-opacity="0.85"/><circle cx="146.18" cy="76.36" r="3.2" fill="#cbd5e1" fill-opacity="0.85"/><circle cx="146.18" cy="58.91" r="3.2" fill="#cbd5e1" fill-opacity="0.85"/><circle cx="146.18" cy="41.45" r="3.2" fill="#cbd5e1" fill-opacity="0.85"/><circle cx="146.18" cy="24.00" r="3.2" fill="#cbd5e1" fill-opacity="0.85"/><circle cx="163.64" cy="216.00" r="3.2" fill="#cbd5e1" fill-opacity="0.85"/><circle cx="163.64" cy="198.55" r="3.2" fill="#cbd5e1" fill-opacity="0.85"/><circle cx="163.64" cy="181.09" r="3.2" fill="#cbd5e1" fill-opacity="0.85"/><circle cx="163.64" cy="163.64" r="3.2" fill="#cbd5e1" fill-opacity="0.85"/><circle cx="163.64" cy="146.18" r="3.2" fill="#cbd5e1" fill-opacity="0.85"/><circle cx="163.64" cy="128.73" r="3.2" fill="#cbd5e1" fill-opacity="0.85"/><circle cx="163.64" cy="111.27" r="3.2" fill="#cbd5e1" fill-opacity="0.85"/><circle cx="163.64" cy="93.82" r="3.2" fill="#cbd5e1" fill-opacity="0.85"/><circle cx="163.64" cy="76.36" r="3.2" fill="#cbd5e1" fill-opacity="0.85"/><circle cx="163.64" cy="58.91" r="3.2" fill="#cbd5e1" fill-opacity="0.85"/><circle cx="163.64" cy="41.45" r="3.2" fill="#cbd5e1" fill-opacity="0.85"/><circle cx="163.64" cy="24.00" r="3.2" fill="#cbd5e1" fill-opacity="0.85"/><circle cx="181.09" cy="216.00" r="3.2" fill="#cbd5e1" fill-opacity="0.85"/><circle cx="181.09" cy="198.55" r="3.2" fill="#cbd5e1" fill-opacity="0.85"/><circle cx="181.09" cy="181.09" r="3.2" fill="#cbd5e1" fill-opacity="0.85"/><circle cx="181.09" cy="163.64" r="3.2" fill="#cbd5e1" fill-opacity="0.85"/><circle cx="181.09" cy="146.18" r="3.2" fill="#cbd5e1" fill-opacity="0.85"/><circle cx="181.09" cy="128.73" r="3.2" fill="#cbd5e1" fill-opacity="0.85"/><circle cx="181.09" cy="111.27" r="3.2" fill="#cbd5e1" fill-opacity="0.85"/><circle cx="181.09" cy="93.82" r="3.2" fill="#cbd5e1" fill-opacity="0.85"/><circle cx="181.09" cy="76.36" r="3.2" fill="#cbd5e1" fill-opacity="0.85"/><circle cx="181.09" cy="58.91" r="3.2" fill="#cbd5e1" fill-opacity="0.85"/><circle cx="181.09" cy="41.45" r="3.2" fill="#cbd5e1" fill-opacity="0.85"/><circle cx="181.09" cy="24.00" r="3.2" fill="#cbd5e1" fill-opacity="0.85"/><circle cx="198.55" cy="216.00" r="3.2" fill="#cbd5e1" fill-opacity="0.85"/><circle cx="200.48" cy="200.48" r="3.2" fill="#cbd5e1" fill-opacity="0.85"/><circle cx="198.55" cy="181.09" r="3.2" fill="#cbd5e1" fill-opacity="0.85"/><circle cx="198.55" cy="163.64" r="3.2" fill="#cbd5e1" fill-opacity="0.85"/><circle cx="198.55" cy="146.18" r="3.2" fill="#cbd5e1" fill-opacity="0.85"/><circle cx="198.55" cy="128.73" r="3.2" fill="#cbd5e1" fill-opacity="0.85"/><circle cx="198.55" cy="111.27" r="3.2" fill="#cbd5e1" fill-opacity="0.85"/><circle cx="198.55" cy="93.82" r="3.2" fill="#cbd5e1" fill-opacity="0.85"/><circle cx="198.55" cy="76.36" r="3.2" fill="#cbd5e1" fill-opacity="0.85"/><circle cx="198.55" cy="58.91" r="3.2" fill="#cbd5e1" fill-opacity="0.85"/><circle cx="198.55" cy="41.45" r="3.2" fill="#cbd5e1" fill-opacity="0.85"/><circle cx="198.55" cy="24.00" r="3.2" fill="#cbd5e1" fill-opacity="0.85"/><circle cx="216.00" cy="216.00" r="3.2" fill="#cbd5e1" fill-opacity="0.85"/><circle cx="216.00" cy="198.55" r="3.2" fill="#cbd5e1" fill-opacity="0.85"/><circle cx="216.00" cy="181.09" r="3.2" fill="#cbd5e1" fill-opacity="0.85"/><circle cx="216.00" cy="163.64" r="3.2" fill="#cbd5e1" fill-opacity="0.85"/><circle cx="216.00" cy="146.18" r="3.2" fill="#cbd5e1" fill-opacity="0.85"/><circle cx="216.00" cy="128.73" r="3.2" fill="#cbd5e1" fill-opacity="0.85"/><circle cx="216.00" cy="111.27" r="3.2" fill="#cbd5e1" fill-opacity="0.85"/><circle cx="216.00" cy="93.82" r="3.2" fill="#cbd5e1" fill-opacity="0.85"/><circle cx="216.00" cy="76.36" r="3.2" fill="#cbd5e1" fill-opacity="0.85"/><circle cx="216.00" cy="58.91" r="3.2" fill="#cbd5e1" fill-opacity="0.85"/><circle cx="216.00" cy="41.45" r="3.2" fill="#cbd5e1" fill-opacity="0.85"/><circle cx="216.00" cy="24.00" r="3.2" fill="#cbd5e1" fill-opacity="0.85"/>
</g>
<g transform="translate(360 72)">
<rect x="0" y="0" width="320" height="240" rx="12" fill="#111827" stroke="#334155"/>
<text x="16" y="24" fill="#cbd5e1" font-family="ui-sans-serif, system-ui, sans-serif" font-size="14" font-weight="600">Cluster labels (Euclidean)</text>
<circle cx="47.27" cy="111.27" r="4.6" fill="#f97316"/><circle cx="58.42" cy="106.42" r="4.6" fill="#f97316"/><circle cx="98.18" cy="156.36" r="4.6" fill="#06b6d4"/><circle cx="98.18" cy="143.27" r="4.6" fill="#06b6d4"/><circle cx="98.18" cy="130.18" r="4.6" fill="#06b6d4"/><circle cx="111.27" cy="156.36" r="4.6" fill="#06b6d4"/><circle cx="111.27" cy="143.27" r="4.6" fill="#06b6d4"/><circle cx="111.27" cy="130.18" r="4.6" fill="#06b6d4"/><circle cx="128.73" cy="156.36" r="4.6" fill="#06b6d4"/><circle cx="128.73" cy="143.27" r="4.6" fill="#06b6d4"/><circle cx="128.73" cy="130.18" r="4.6" fill="#06b6d4"/><circle cx="141.82" cy="156.36" r="4.6" fill="#06b6d4"/><circle cx="141.82" cy="143.27" r="4.6" fill="#06b6d4"/><circle cx="141.82" cy="130.18" r="4.6" fill="#06b6d4"/><circle cx="170.91" cy="179.64" r="4.6" fill="#a855f7"/><circle cx="165.09" cy="179.64" r="4.6" fill="#a855f7"/><circle cx="204.36" cy="192.73" r="4.6" fill="#22c55e"/><circle cx="204.36" cy="181.09" r="4.6" fill="#22c55e"/><circle cx="204.36" cy="163.64" r="4.6" fill="#22c55e"/><circle cx="204.36" cy="146.18" r="4.6" fill="#22c55e"/><circle cx="204.36" cy="134.55" r="4.6" fill="#22c55e"/><circle cx="204.36" cy="122.91" r="4.6" fill="#22c55e"/>
</g>
<g transform="translate(696 72)">
<rect x="0" y="0" width="240" height="240" rx="12" fill="#111827" stroke="#334155"/>
<text x="16" y="24" fill="#cbd5e1" font-family="ui-sans-serif, system-ui, sans-serif" font-size="14" font-weight="600">Pipeline</text>
<text x="16" y="52.0" fill="#94a3b8" font-family="ui-monospace, monospace" font-size="12">0. PCD / LAS / COPC</text><text x="16" y="80.0" fill="#94a3b8" font-family="ui-monospace, monospace" font-size="12">1. Voxel downsample</text><text x="16" y="108.0" fill="#94a3b8" font-family="ui-monospace, monospace" font-size="12">2. Normal estimation</text><text x="16" y="136.0" fill="#94a3b8" font-family="ui-monospace, monospace" font-size="12">3. Plane RANSAC</text><text x="16" y="164.0" fill="#94a3b8" font-family="ui-monospace, monospace" font-size="12">4. Euclidean cluster</text><text x="16" y="192.0" fill="#94a3b8" font-family="ui-monospace, monospace" font-size="12">5. Optional ICP</text><text x="16" y="228" fill="#64748b" font-family="ui-sans-serif, system-ui, sans-serif" font-size="11">4 cluster(s) in preview scene</text>
</g>
</svg>
