<?xml version="1.0" encoding="UTF-8"?>
<svg xmlns="http://www.w3.org/2000/svg" width="1280" height="640" viewBox="0 0 1280 640" role="img" aria-labelledby="title">
  <title id="title">SpatialRust social preview</title>
  <defs>
    <linearGradient id="bg" x1="0" y1="0" x2="1" y2="1">
      <stop offset="0%" stop-color="#080c1c"/>
      <stop offset="55%" stop-color="#111827"/>
      <stop offset="100%" stop-color="#172554"/>
    </linearGradient>
    <radialGradient id="glow" cx="72%" cy="42%" r="45%">
      <stop offset="0%" stop-color="#38bdf8" stop-opacity="0.35"/>
      <stop offset="100%" stop-color="#38bdf8" stop-opacity="0"/>
    </radialGradient>
  </defs>
  <rect width="1280" height="640" fill="url(#bg)"/>
  <rect width="1280" height="640" fill="url(#glow)"/>
  <text x="80" y="150" fill="#f8fafc" font-family="ui-sans-serif, system-ui, sans-serif" font-size="72" font-weight="800">SpatialRust</text>
  <text x="80" y="220" fill="#38bdf8" font-family="ui-sans-serif, system-ui, sans-serif" font-size="34" font-weight="600">PyTorch for Spatial Computing</text>
  <text x="80" y="290" fill="#cbd5e1" font-family="ui-sans-serif, system-ui, sans-serif" font-size="28">Point clouds · wgpu · COPC · RANSAC · ICP · native Rust</text>
  <text x="80" y="380" fill="#94a3b8" font-family="ui-monospace, monospace" font-size="24">cargo run -p spatialrust --features mvp --bin spatialrust-mvp -- scan.las out.las</text>
  <rect x="820" y="90" width="400" height="460" rx="28" fill="#0b1224" stroke="#334155"/>
  <text x="850" y="140" fill="#e2e8f0" font-family="ui-sans-serif, system-ui, sans-serif" font-size="22" font-weight="700">Isometric pipeline preview</text>
  <circle cx="920" cy="250" r="5" fill="#94a3b8"/>
  <circle cx="940" cy="230" r="5" fill="#64748b"/>
  <circle cx="960" cy="260" r="5" fill="#cbd5e1"/>
  <circle cx="980" cy="240" r="5" fill="#64748b"/>
  <circle cx="1000" cy="270" r="5" fill="#94a3b8"/>
  <circle cx="1040" cy="220" r="7" fill="#38bdf8"/>
  <circle cx="1060" cy="210" r="7" fill="#38bdf8"/>
  <circle cx="1080" cy="225" r="7" fill="#22d3ee"/>
  <circle cx="1110" cy="320" r="9" fill="#f97316"/>
  <circle cx="1135" cy="305" r="9" fill="#06b6d4"/>
  <circle cx="1160" cy="330" r="9" fill="#a855f7"/>
  <circle cx="1185" cy="315" r="9" fill="#22c55e"/>
  <rect x="850" y="390" width="340" height="8" rx="4" fill="#1e293b"/>
  <rect x="850" y="390" width="255" height="8" rx="4" fill="#38bdf8"/>
  <text x="850" y="430" fill="#94a3b8" font-family="ui-monospace, monospace" font-size="16">scan → voxel → plane → cluster</text>
</svg>
