<?xml version="1.0" encoding="UTF-8"?>
<svg xmlns="http://www.w3.org/2000/svg" width="1280" height="640" viewBox="0 0 1280 640" role="img" aria-labelledby="title">
<title id="title">SpatialRust social preview</title>
<defs>
  <linearGradient id="bg" x1="0" y1="0" x2="1" y2="1">
    <stop offset="0%" stop-color="#080c1c"/>
    <stop offset="55%" stop-color="#111827"/>
    <stop offset="100%" stop-color="#172554"/>
  </linearGradient>
  <radialGradient id="glow" cx="72%" cy="38%" r="48%">
    <stop offset="0%" stop-color="#38bdf8" stop-opacity="0.35"/>
    <stop offset="100%" stop-color="#38bdf8" stop-opacity="0"/>
  </radialGradient>
</defs>
<rect width="1280" height="640" fill="url(#bg)"/>
<rect width="1280" height="640" fill="url(#glow)"/>
<text x="80" y="150" fill="#f8fafc" font-family="ui-sans-serif, system-ui, sans-serif" font-size="80" font-weight="800">SpatialRust</text>
<text x="82" y="210" fill="#38bdf8" font-family="ui-sans-serif, system-ui, sans-serif" font-size="34" font-weight="700">PyTorch for Spatial Computing</text>
<text x="82" y="262" fill="#cbd5e1" font-family="ui-sans-serif, system-ui, sans-serif" font-size="24">Point clouds · wgpu · COPC · RANSAC · ICP — native Rust</text>
<rect x="80" y="300" width="230" height="40" rx="16" fill="#0b1224" stroke="#334155"/>
<rect x="326" y="300" width="150" height="40" rx="16" fill="#0b1224" stroke="#334155"/>
<rect x="492" y="300" width="250" height="40" rx="16" fill="#0b1224" stroke="#334155"/>
<text x="195" y="320" text-anchor="middle" dominant-baseline="middle" fill="#38bdf8" font-family="ui-sans-serif, system-ui, sans-serif" font-size="18" font-weight="700">GPU voxel ~3.9x @ 2M</text>
<text x="401" y="320" text-anchor="middle" dominant-baseline="middle" fill="#cbd5e1" font-family="ui-sans-serif, system-ui, sans-serif" font-size="18">11 crates</text>
<text x="617" y="320" text-anchor="middle" dominant-baseline="middle" fill="#cbd5e1" font-family="ui-sans-serif, system-ui, sans-serif" font-size="18">MIT / Apache-2.0</text>
<text x="82" y="400" fill="#94a3b8" font-family="ui-monospace, monospace" font-size="22">cargo run --features mvp --bin spatialrust-mvp -- scan.las out.las</text>
<rect x="812" y="70" width="408" height="500" rx="28" fill="#0b1224" stroke="#334155"/>
<text x="842" y="118" fill="#e2e8f0" font-family="ui-sans-serif, system-ui, sans-serif" font-size="22" font-weight="700">Isometric pipeline preview</text>
<circle cx="1016.0" cy="250.0" r="3" fill="#3b82f6" fill-opacity="0.7"/><circle cx="1004.5" cy="256.5" r="3" fill="#3b82f6" fill-opacity="0.7"/><circle cx="993.0" cy="263.0" r="3" fill="#3b82f6" fill-opacity="0.7"/><circle cx="981.5" cy="269.5" r="3" fill="#3b82f6" fill-opacity="0.7"/><circle cx="970.0" cy="276.0" r="3" fill="#3b82f6" fill-opacity="0.7"/><circle cx="958.5" cy="282.5" r="3" fill="#3b82f6" fill-opacity="0.7"/><circle cx="947.0" cy="289.0" r="3" fill="#3b82f6" fill-opacity="0.7"/><circle cx="935.5" cy="295.5" r="3" fill="#3b82f6" fill-opacity="0.7"/><circle cx="924.0" cy="302.0" r="3" fill="#3b82f6" fill-opacity="0.7"/><circle cx="912.5" cy="308.5" r="3" fill="#3b82f6" fill-opacity="0.7"/><circle cx="901.0" cy="315.0" r="3" fill="#3b82f6" fill-opacity="0.7"/><circle cx="1027.5" cy="256.5" r="3" fill="#3b82f6" fill-opacity="0.7"/><circle cx="1016.0" cy="263.0" r="3" fill="#3b82f6" fill-opacity="0.7"/><circle cx="1004.5" cy="269.5" r="3" fill="#3b82f6" fill-opacity="0.7"/><circle cx="993.0" cy="276.0" r="3" fill="#3b82f6" fill-opacity="0.7"/><circle cx="981.5" cy="282.5" r="3" fill="#3b82f6" fill-opacity="0.7"/><circle cx="970.0" cy="289.0" r="3" fill="#3b82f6" fill-opacity="0.7"/><circle cx="958.5" cy="295.5" r="3" fill="#3b82f6" fill-opacity="0.7"/><circle cx="947.0" cy="302.0" r="3" fill="#3b82f6" fill-opacity="0.7"/><circle cx="935.5" cy="308.5" r="3" fill="#3b82f6" fill-opacity="0.7"/><circle cx="924.0" cy="315.0" r="3" fill="#3b82f6" fill-opacity="0.7"/><circle cx="912.5" cy="321.5" r="3" fill="#3b82f6" fill-opacity="0.7"/><circle cx="1039.0" cy="263.0" r="3" fill="#3b82f6" fill-opacity="0.7"/><circle cx="1027.5" cy="269.5" r="3" fill="#3b82f6" fill-opacity="0.7"/><circle cx="1016.0" cy="276.0" r="3" fill="#3b82f6" fill-opacity="0.7"/><circle cx="1004.5" cy="282.5" r="3" fill="#3b82f6" fill-opacity="0.7"/><circle cx="993.0" cy="289.0" r="3" fill="#3b82f6" fill-opacity="0.7"/><circle cx="981.5" cy="295.5" r="3" fill="#3b82f6" fill-opacity="0.7"/><circle cx="970.0" cy="302.0" r="3" fill="#3b82f6" fill-opacity="0.7"/><circle cx="958.5" cy="308.5" r="3" fill="#3b82f6" fill-opacity="0.7"/><circle cx="947.0" cy="315.0" r="3" fill="#3b82f6" fill-opacity="0.7"/><circle cx="935.5" cy="321.5" r="3" fill="#3b82f6" fill-opacity="0.7"/><circle cx="924.0" cy="328.0" r="3" fill="#3b82f6" fill-opacity="0.7"/><circle cx="1050.5" cy="269.5" r="3" fill="#3b82f6" fill-opacity="0.7"/><circle cx="1039.0" cy="276.0" r="3" fill="#3b82f6" fill-opacity="0.7"/><circle cx="1027.5" cy="282.5" r="3" fill="#3b82f6" fill-opacity="0.7"/><circle cx="1016.0" cy="289.0" r="3" fill="#3b82f6" fill-opacity="0.7"/><circle cx="1004.5" cy="295.5" r="3" fill="#3b82f6" fill-opacity="0.7"/><circle cx="993.0" cy="302.0" r="3" fill="#3b82f6" fill-opacity="0.7"/><circle cx="981.5" cy="308.5" r="3" fill="#3b82f6" fill-opacity="0.7"/><circle cx="970.0" cy="315.0" r="3" fill="#3b82f6" fill-opacity="0.7"/><circle cx="958.5" cy="321.5" r="3" fill="#3b82f6" fill-opacity="0.7"/><circle cx="947.0" cy="328.0" r="3" fill="#3b82f6" fill-opacity="0.7"/><circle cx="935.5" cy="334.5" r="3" fill="#3b82f6" fill-opacity="0.7"/><circle cx="1062.0" cy="276.0" r="3" fill="#3b82f6" fill-opacity="0.7"/><circle cx="1050.5" cy="282.5" r="3" fill="#3b82f6" fill-opacity="0.7"/><circle cx="1039.0" cy="289.0" r="3" fill="#3b82f6" fill-opacity="0.7"/><circle cx="1027.5" cy="295.5" r="3" fill="#3b82f6" fill-opacity="0.7"/><circle cx="1016.0" cy="302.0" r="3" fill="#3b82f6" fill-opacity="0.7"/><circle cx="1004.5" cy="308.5" r="3" fill="#3b82f6" fill-opacity="0.7"/><circle cx="993.0" cy="315.0" r="3" fill="#3b82f6" fill-opacity="0.7"/><circle cx="981.5" cy="321.5" r="3" fill="#3b82f6" fill-opacity="0.7"/><circle cx="970.0" cy="328.0" r="3" fill="#3b82f6" fill-opacity="0.7"/><circle cx="958.5" cy="334.5" r="3" fill="#3b82f6" fill-opacity="0.7"/><circle cx="947.0" cy="341.0" r="3" fill="#3b82f6" fill-opacity="0.7"/><circle cx="1073.5" cy="282.5" r="3" fill="#3b82f6" fill-opacity="0.7"/><circle cx="1062.0" cy="289.0" r="3" fill="#3b82f6" fill-opacity="0.7"/><circle cx="1050.5" cy="295.5" r="3" fill="#3b82f6" fill-opacity="0.7"/><circle cx="1039.0" cy="302.0" r="3" fill="#3b82f6" fill-opacity="0.7"/><circle cx="1027.5" cy="308.5" r="3" fill="#3b82f6" fill-opacity="0.7"/><circle cx="1016.0" cy="315.0" r="3" fill="#3b82f6" fill-opacity="0.7"/><circle cx="1004.5" cy="321.5" r="3" fill="#3b82f6" fill-opacity="0.7"/><circle cx="993.0" cy="328.0" r="3" fill="#3b82f6" fill-opacity="0.7"/><circle cx="981.5" cy="334.5" r="3" fill="#3b82f6" fill-opacity="0.7"/><circle cx="970.0" cy="341.0" r="3" fill="#3b82f6" fill-opacity="0.7"/><circle cx="958.5" cy="347.5" r="3" fill="#3b82f6" fill-opacity="0.7"/><circle cx="1085.0" cy="289.0" r="3" fill="#3b82f6" fill-opacity="0.7"/><circle cx="1073.5" cy="295.5" r="3" fill="#3b82f6" fill-opacity="0.7"/><circle cx="1062.0" cy="302.0" r="3" fill="#3b82f6" fill-opacity="0.7"/><circle cx="1050.5" cy="308.5" r="3" fill="#3b82f6" fill-opacity="0.7"/><circle cx="1039.0" cy="315.0" r="3" fill="#3b82f6" fill-opacity="0.7"/><circle cx="1027.5" cy="321.5" r="3" fill="#3b82f6" fill-opacity="0.7"/><circle cx="1016.0" cy="328.0" r="3" fill="#3b82f6" fill-opacity="0.7"/><circle cx="1004.5" cy="334.5" r="3" fill="#3b82f6" fill-opacity="0.7"/><circle cx="993.0" cy="341.0" r="3" fill="#3b82f6" fill-opacity="0.7"/><circle cx="981.5" cy="347.5" r="3" fill="#3b82f6" fill-opacity="0.7"/><circle cx="970.0" cy="354.0" r="3" fill="#3b82f6" fill-opacity="0.7"/><circle cx="1096.5" cy="295.5" r="3" fill="#3b82f6" fill-opacity="0.7"/><circle cx="1085.0" cy="302.0" r="3" fill="#3b82f6" fill-opacity="0.7"/><circle cx="1073.5" cy="308.5" r="3" fill="#3b82f6" fill-opacity="0.7"/><circle cx="1062.0" cy="315.0" r="3" fill="#3b82f6" fill-opacity="0.7"/><circle cx="1050.5" cy="321.5" r="3" fill="#3b82f6" fill-opacity="0.7"/><circle cx="1039.0" cy="328.0" r="3" fill="#3b82f6" fill-opacity="0.7"/><circle cx="1027.5" cy="334.5" r="3" fill="#3b82f6" fill-opacity="0.7"/><circle cx="1016.0" cy="341.0" r="3" fill="#3b82f6" fill-opacity="0.7"/><circle cx="1004.5" cy="347.5" r="3" fill="#3b82f6" fill-opacity="0.7"/><circle cx="993.0" cy="354.0" r="3" fill="#3b82f6" fill-opacity="0.7"/><circle cx="981.5" cy="360.5" r="3" fill="#3b82f6" fill-opacity="0.7"/><circle cx="1108.0" cy="302.0" r="3" fill="#3b82f6" fill-opacity="0.7"/><circle cx="1096.5" cy="308.5" r="3" fill="#3b82f6" fill-opacity="0.7"/><circle cx="1085.0" cy="315.0" r="3" fill="#3b82f6" fill-opacity="0.7"/><circle cx="1073.5" cy="321.5" r="3" fill="#3b82f6" fill-opacity="0.7"/><circle cx="1062.0" cy="328.0" r="3" fill="#3b82f6" fill-opacity="0.7"/><circle cx="1050.5" cy="334.5" r="3" fill="#3b82f6" fill-opacity="0.7"/><circle cx="1039.0" cy="341.0" r="3" fill="#3b82f6" fill-opacity="0.7"/><circle cx="1027.5" cy="347.5" r="3" fill="#3b82f6" fill-opacity="0.7"/><circle cx="1016.0" cy="354.0" r="3" fill="#3b82f6" fill-opacity="0.7"/><circle cx="1004.5" cy="360.5" r="3" fill="#3b82f6" fill-opacity="0.7"/><circle cx="993.0" cy="367.0" r="3" fill="#3b82f6" fill-opacity="0.7"/><circle cx="1119.5" cy="308.5" r="3" fill="#3b82f6" fill-opacity="0.7"/><circle cx="1108.0" cy="315.0" r="3" fill="#3b82f6" fill-opacity="0.7"/><circle cx="1096.5" cy="321.5" r="3" fill="#3b82f6" fill-opacity="0.7"/><circle cx="1085.0" cy="328.0" r="3" fill="#3b82f6" fill-opacity="0.7"/><circle cx="1073.5" cy="334.5" r="3" fill="#3b82f6" fill-opacity="0.7"/><circle cx="1062.0" cy="341.0" r="3" fill="#3b82f6" fill-opacity="0.7"/><circle cx="1050.5" cy="347.5" r="3" fill="#3b82f6" fill-opacity="0.7"/><circle cx="1039.0" cy="354.0" r="3" fill="#3b82f6" fill-opacity="0.7"/><circle cx="1027.5" cy="360.5" r="3" fill="#3b82f6" fill-opacity="0.7"/><circle cx="1016.0" cy="367.0" r="3" fill="#3b82f6" fill-opacity="0.7"/><circle cx="1004.5" cy="373.5" r="3" fill="#3b82f6" fill-opacity="0.7"/><circle cx="1131.0" cy="315.0" r="3" fill="#3b82f6" fill-opacity="0.7"/><circle cx="1119.5" cy="321.5" r="3" fill="#3b82f6" fill-opacity="0.7"/><circle cx="1108.0" cy="328.0" r="3" fill="#3b82f6" fill-opacity="0.7"/><circle cx="1096.5" cy="334.5" r="3" fill="#3b82f6" fill-opacity="0.7"/><circle cx="1085.0" cy="341.0" r="3" fill="#3b82f6" fill-opacity="0.7"/><circle cx="1073.5" cy="347.5" r="3" fill="#3b82f6" fill-opacity="0.7"/><circle cx="1062.0" cy="354.0" r="3" fill="#3b82f6" fill-opacity="0.7"/><circle cx="1050.5" cy="360.5" r="3" fill="#3b82f6" fill-opacity="0.7"/><circle cx="1039.0" cy="367.0" r="3" fill="#3b82f6" fill-opacity="0.7"/><circle cx="1027.5" cy="373.5" r="3" fill="#3b82f6" fill-opacity="0.7"/><circle cx="1016.0" cy="380.0" r="3" fill="#3b82f6" fill-opacity="0.7"/><circle cx="1142.5" cy="321.5" r="3" fill="#3b82f6" fill-opacity="0.7"/><circle cx="1131.0" cy="328.0" r="3" fill="#3b82f6" fill-opacity="0.7"/><circle cx="1119.5" cy="334.5" r="3" fill="#3b82f6" fill-opacity="0.7"/><circle cx="1108.0" cy="341.0" r="3" fill="#3b82f6" fill-opacity="0.7"/><circle cx="1096.5" cy="347.5" r="3" fill="#3b82f6" fill-opacity="0.7"/><circle cx="1085.0" cy="354.0" r="3" fill="#3b82f6" fill-opacity="0.7"/><circle cx="1073.5" cy="360.5" r="3" fill="#3b82f6" fill-opacity="0.7"/><circle cx="1062.0" cy="367.0" r="3" fill="#3b82f6" fill-opacity="0.7"/><circle cx="1050.5" cy="373.5" r="3" fill="#3b82f6" fill-opacity="0.7"/><circle cx="1039.0" cy="380.0" r="3" fill="#3b82f6" fill-opacity="0.7"/><circle cx="1027.5" cy="386.5" r="3" fill="#3b82f6" fill-opacity="0.7"/><circle cx="1154.0" cy="328.0" r="3" fill="#3b82f6" fill-opacity="0.7"/><circle cx="1142.5" cy="334.5" r="3" fill="#3b82f6" fill-opacity="0.7"/><circle cx="1131.0" cy="341.0" r="3" fill="#3b82f6" fill-opacity="0.7"/><circle cx="1119.5" cy="347.5" r="3" fill="#3b82f6" fill-opacity="0.7"/><circle cx="1108.0" cy="354.0" r="3" fill="#3b82f6" fill-opacity="0.7"/><circle cx="1096.5" cy="360.5" r="3" fill="#3b82f6" fill-opacity="0.7"/><circle cx="1085.0" cy="367.0" r="3" fill="#3b82f6" fill-opacity="0.7"/><circle cx="1073.5" cy="373.5" r="3" fill="#3b82f6" fill-opacity="0.7"/><circle cx="1062.0" cy="380.0" r="3" fill="#3b82f6" fill-opacity="0.7"/><circle cx="1050.5" cy="386.5" r="3" fill="#3b82f6" fill-opacity="0.7"/><circle cx="1039.0" cy="393.0" r="3" fill="#3b82f6" fill-opacity="0.7"/><circle cx="1165.5" cy="334.5" r="3" fill="#3b82f6" fill-opacity="0.7"/><circle cx="1154.0" cy="341.0" r="3" fill="#3b82f6" fill-opacity="0.7"/><circle cx="1142.5" cy="347.5" r="3" fill="#3b82f6" fill-opacity="0.7"/><circle cx="1131.0" cy="354.0" r="3" fill="#3b82f6" fill-opacity="0.7"/><circle cx="1119.5" cy="360.5" r="3" fill="#3b82f6" fill-opacity="0.7"/><circle cx="1108.0" cy="367.0" r="3" fill="#3b82f6" fill-opacity="0.7"/><circle cx="1096.5" cy="373.5" r="3" fill="#3b82f6" fill-opacity="0.7"/><circle cx="1085.0" cy="380.0" r="3" fill="#3b82f6" fill-opacity="0.7"/><circle cx="1073.5" cy="386.5" r="3" fill="#3b82f6" fill-opacity="0.7"/><circle cx="1062.0" cy="393.0" r="3" fill="#3b82f6" fill-opacity="0.7"/><circle cx="1050.5" cy="399.5" r="3" fill="#3b82f6" fill-opacity="0.7"/>
<circle cx="940" cy="250" r="6" fill="#f97316"/><circle cx="948" cy="254" r="6" fill="#f97316"/><circle cx="933" cy="255" r="6" fill="#f97316"/><circle cx="944" cy="243" r="6" fill="#f97316"/><circle cx="935" cy="244" r="6" fill="#f97316"/><circle cx="980" cy="300" r="6" fill="#06b6d4"/><circle cx="988" cy="304" r="6" fill="#06b6d4"/><circle cx="973" cy="305" r="6" fill="#06b6d4"/><circle cx="984" cy="293" r="6" fill="#06b6d4"/><circle cx="975" cy="294" r="6" fill="#06b6d4"/><circle cx="1060" cy="260" r="6" fill="#a855f7"/><circle cx="1068" cy="264" r="6" fill="#a855f7"/><circle cx="1053" cy="265" r="6" fill="#a855f7"/><circle cx="1064" cy="253" r="6" fill="#a855f7"/><circle cx="1055" cy="254" r="6" fill="#a855f7"/><circle cx="1090" cy="320" r="6" fill="#22c55e"/><circle cx="1098" cy="324" r="6" fill="#22c55e"/><circle cx="1083" cy="325" r="6" fill="#22c55e"/><circle cx="1094" cy="313" r="6" fill="#22c55e"/><circle cx="1085" cy="314" r="6" fill="#22c55e"/><circle cx="1010" cy="360" r="6" fill="#f472b6"/><circle cx="1018" cy="364" r="6" fill="#f472b6"/><circle cx="1003" cy="365" r="6" fill="#f472b6"/><circle cx="1014" cy="353" r="6" fill="#f472b6"/><circle cx="1005" cy="354" r="6" fill="#f472b6"/>
<rect x="842" y="500" width="348" height="8" rx="4" fill="#1e293b"/>
<rect x="842" y="500" width="261" height="8" rx="4" fill="#38bdf8"/>
<text x="842" y="534" fill="#94a3b8" font-family="ui-monospace, monospace" font-size="16">scan → voxel → plane → cluster</text>
</svg>
